<svg width="727" height="441" viewBox="0 0 727 441" fill="none" xmlns="http://www.w3.org/2000/svg">
<path d="M545.727 247.84C541.913 253.547 537.94 259.107 533.833 264.493C561.22 257.893 588.033 249.16 613.78 238.427C668.487 215.64 706.247 176.067 709.993 137.6C712.18 115.027 702.06 95.5599 680.713 81.3065C667.913 72.7599 653.553 68.4399 638.02 68.4399C629.78 68.4399 621.18 69.6532 612.407 72.0399C611.14 79.2132 609.727 86.3731 608.18 93.4531C628.033 87.3198 645.087 87.5465 658.26 94.1865C674.953 102.6 685.26 118.333 685.833 136.293C686.66 162.44 667.847 188.733 634.207 208.44C607.953 223.813 578.207 237.067 545.727 247.84ZM512.98 285.227C510.14 285.227 507.473 283.72 506.033 281.186C504.327 278.213 504.727 274.467 507.007 271.907C516.58 261.173 525.62 249.333 533.9 236.72C534.9 235.2 536.38 234.067 538.113 233.493C570.527 222.92 600.14 209.853 626.113 194.627C654.54 177.973 670.473 156.907 669.833 136.8C669.447 124.613 662.607 114.293 651.073 108.48C646.5 106.173 641.02 105.013 634.807 105.013C624.927 105.013 613.287 107.853 600.207 113.453C597.42 114.653 594.193 114.173 591.887 112.213C589.567 110.253 588.567 107.147 589.287 104.2C592.473 91.1999 595.233 77.8265 597.487 64.4531C597.98 61.4931 600.1 59.0666 602.953 58.1599C614.887 54.3599 626.687 52.4399 638.02 52.4399C656.767 52.4399 674.113 57.6666 689.593 67.9999C715.78 85.4799 728.673 110.746 725.913 139.146C721.607 183.413 680.007 228.173 619.94 253.2C586.207 267.253 550.74 277.973 514.513 285.08C514.007 285.186 513.487 285.227 512.98 285.227Z" fill="#493728"/>
<path d="M62.5493 94.4529C69.1146 182.826 108.709 338.96 306.595 338.96C487.407 338.96 542.887 182.826 559.807 94.4529H62.5493Z" fill="#C0FFFF"/>
<path d="M121.389 128.093C121.389 132.147 118.104 135.427 114.056 135.427C110.005 135.427 106.723 132.147 106.723 128.093C106.723 124.04 110.005 120.76 114.056 120.76C118.104 120.76 121.389 124.04 121.389 128.093Z" fill="white"/>
<path d="M178.273 175.84C178.273 179.893 174.991 183.173 170.94 183.173C166.892 183.173 163.607 179.893 163.607 175.84C163.607 171.786 166.892 168.506 170.94 168.506C174.991 168.506 178.273 171.786 178.273 175.84Z" fill="white"/>
<path d="M347.607 210.493C347.607 214.546 344.327 217.826 340.273 217.826C336.233 217.826 332.94 214.546 332.94 210.493C332.94 206.44 336.233 203.16 340.273 203.16C344.327 203.16 347.607 206.44 347.607 210.493Z" fill="white"/>
<path d="M141.607 204.787C141.607 208.84 138.324 212.12 134.273 212.12C130.225 212.12 126.94 208.84 126.94 204.787C126.94 200.747 130.225 197.453 134.273 197.453C138.324 197.453 141.607 200.747 141.607 204.787Z" fill="white"/>
<path d="M211.612 135.426C211.612 139.48 208.327 142.76 204.279 142.76C200.228 142.76 196.945 139.48 196.945 135.426C196.945 131.373 200.228 128.093 204.279 128.093C208.327 128.093 211.612 131.373 211.612 135.426Z" fill="white"/>
<path d="M319.825 146.027C319.825 150.067 316.543 153.36 312.492 153.36C308.444 153.36 305.159 150.067 305.159 146.027C305.159 141.973 308.444 138.693 312.492 138.693C316.543 138.693 319.825 141.973 319.825 146.027Z" fill="white"/>
<path d="M376.513 128.093C376.513 132.147 373.233 135.427 369.18 135.427C365.127 135.427 361.847 132.147 361.847 128.093C361.847 124.04 365.127 120.76 369.18 120.76C373.233 120.76 376.513 124.04 376.513 128.093Z" fill="white"/>
<path d="M474.513 158.12C474.513 162.173 471.233 165.453 467.18 165.453C463.127 165.453 459.847 162.173 459.847 158.12C459.847 154.08 463.127 150.786 467.18 150.786C471.233 150.786 474.513 154.08 474.513 158.12Z" fill="white"/>
<path d="M446.273 196.507C446.273 200.56 442.993 203.84 438.94 203.84C434.887 203.84 431.607 200.56 431.607 196.507C431.607 192.453 434.887 189.173 438.94 189.173C442.993 189.173 446.273 192.453 446.273 196.507Z" fill="white"/>
<path d="M151.979 142.693C151.979 144.533 150.487 146.027 148.645 146.027C146.804 146.027 145.312 144.533 145.312 142.693C145.312 140.853 146.804 139.36 148.645 139.36C150.487 139.36 151.979 140.853 151.979 142.693Z" fill="white"/>
<path d="M241.829 158.12C241.829 159.973 240.337 161.453 238.496 161.453C236.656 161.453 235.163 159.973 235.163 158.12C235.163 156.28 236.656 154.786 238.496 154.786C240.337 154.786 241.829 156.28 241.829 158.12Z" fill="white"/>
<path d="M225.607 193.173C225.607 195.013 224.115 196.507 222.273 196.507C220.433 196.507 218.94 195.013 218.94 193.173C218.94 191.333 220.433 189.84 222.273 189.84C224.115 189.84 225.607 191.333 225.607 193.173Z" fill="white"/>
<path d="M417.607 142.76C417.607 144.6 416.113 146.093 414.273 146.093C412.433 146.093 410.94 144.6 410.94 142.76C410.94 140.92 412.433 139.426 414.273 139.426C416.113 139.426 417.607 140.92 417.607 142.76Z" fill="white"/>
<path d="M354.273 174.533C354.273 176.386 352.78 177.866 350.94 177.866C349.1 177.866 347.607 176.386 347.607 174.533C347.607 172.693 349.1 171.2 350.94 171.2C352.78 171.2 354.273 172.693 354.273 174.533Z" fill="white"/>
<path d="M399.607 183.173C399.607 185.013 398.113 186.507 396.273 186.507C394.433 186.507 392.94 185.013 392.94 183.173C392.94 181.333 394.433 179.84 396.273 179.84C398.113 179.84 399.607 181.333 399.607 183.173Z" fill="white"/>
<path d="M516.5 135.426C516.5 137.266 515.007 138.76 513.167 138.76C511.327 138.76 509.833 137.266 509.833 135.426C509.833 133.586 511.327 132.093 513.167 132.093C515.007 132.093 516.5 133.586 516.5 135.426Z" fill="white"/>
<path d="M459.847 123.173C459.847 125.013 458.353 126.507 456.513 126.507C454.673 126.507 453.18 125.013 453.18 123.173C453.18 121.333 454.673 119.84 456.513 119.84C458.353 119.84 459.847 121.333 459.847 123.173Z" fill="white"/>
<path d="M504.273 189.84C504.273 191.68 502.78 193.173 500.94 193.173C499.1 193.173 497.607 191.68 497.607 189.84C497.607 188 499.1 186.506 500.94 186.506C502.78 186.506 504.273 188 504.273 189.84Z" fill="white"/>
<path d="M266.837 123.173C266.837 125.013 265.345 126.507 263.504 126.507C261.663 126.507 260.171 125.013 260.171 123.173C260.171 121.333 261.663 119.84 263.504 119.84C265.345 119.84 266.837 121.333 266.837 123.173Z" fill="white"/>
<path d="M282.273 186.507C282.273 188.347 280.781 189.84 278.94 189.84C277.1 189.84 275.607 188.347 275.607 186.507C275.607 184.667 277.1 183.173 278.94 183.173C280.781 183.173 282.273 184.667 282.273 186.507Z" fill="white"/>
<path d="M25.4761 16.413C24.6028 30.653 23.5041 64.7197 29.0241 105.746C35.6841 155.213 53.6241 225.293 101.28 278.186C148.868 330.986 217.491 357.76 305.244 357.76C424.833 357.76 511.38 299.253 562.473 183.853C594.113 112.4 601.66 40.2797 603.353 16.413H25.4761ZM305.244 373.76C212.727 373.76 140.084 345.186 89.3307 288.826C38.8774 232.786 20.0321 159.253 13.1068 107.426C5.64146 51.5465 9.92146 9.3464 10.1068 7.57307C10.5348 3.5064 13.9681 0.413043 18.0628 0.413043H611.82C613.98 0.413043 616.047 1.27979 617.553 2.82645C619.06 4.38645 619.873 6.46645 619.807 8.62645C619.713 12.3465 616.847 100.573 577.1 190.32C553.607 243.4 522.033 285.76 483.26 316.213C434.647 354.4 374.753 373.76 305.244 373.76Z" fill="#493728"/>
<path d="M101.172 231.173C134.657 289.8 195.781 338.813 306.601 338.813C407.86 338.813 469.767 289.8 507.62 231.173H101.172Z" fill="#493728"/>
<path d="M71.2559 102.453C79.7546 191.666 122.543 330.96 306.595 330.96C474.367 330.96 530.98 192.053 550.033 102.453H71.2559ZM306.595 346.96C217.136 346.96 149.747 315.84 106.299 254.466C69.4693 202.453 57.8412 139.066 54.5732 95.0397C54.4066 92.8263 55.1732 90.6396 56.6879 89.013C58.2012 87.373 60.3239 86.4529 62.5492 86.4529H559.807C562.193 86.4529 564.46 87.5197 565.98 89.3597C567.5 91.1864 568.113 93.613 567.673 95.9597C559.273 139.813 540.887 202.96 500.993 254.733C453.847 315.92 388.433 346.96 306.595 346.96Z" fill="#493728"/>
<path d="M614.353 373.76H8C3.58267 373.76 0 370.186 0 365.76C0 361.346 3.58267 357.76 8 357.76H614.353C618.78 357.76 622.353 361.346 622.353 365.76C622.353 370.186 618.78 373.76 614.353 373.76Z" fill="#493728"/>
<path d="M158.664 401.853H162.543L168.623 425.493L175.341 401.853H179.423L185.824 425.413L191.943 401.853H195.863L187.781 429.733H183.701L177.221 407.293L170.503 429.733L166.465 429.773L158.664 401.853Z" fill="#493728"/>
<path d="M209.623 410.613C205.623 410.613 202.224 413.533 202.224 418.693C202.224 423.853 205.623 426.893 209.623 426.893C213.623 426.893 217.063 423.893 217.063 418.733C217.063 413.653 213.623 410.613 209.623 410.613ZM208.904 407.453C212.983 407.453 215.781 409.533 217.063 411.813V407.813H220.744V429.733H217.063V425.653C215.744 428.013 212.904 430.093 208.863 430.093C203.024 430.093 198.503 425.493 198.503 418.693C198.503 411.853 203.024 407.453 208.904 407.453Z" fill="#493728"/>
<path d="M227.704 410.813H224.865V407.813H227.704V402.293H231.344V407.813H237.063V410.813H231.344V423.733C231.344 425.893 232.144 426.653 234.383 426.653H237.063V429.733H233.784C229.904 429.733 227.704 428.133 227.704 423.733V410.813Z" fill="#493728"/>
<path d="M243.863 417.173H257.704C257.744 412.893 254.543 410.533 250.784 410.533C247.224 410.533 244.264 412.893 243.863 417.173ZM250.943 430.093C244.704 430.093 240.104 425.693 240.104 418.733C240.104 411.813 244.545 407.453 250.943 407.453C257.303 407.453 261.465 411.933 261.465 417.933C261.465 418.733 261.423 419.373 261.344 420.133H243.824C244.104 424.573 247.224 427.013 250.943 427.013C254.224 427.013 256.303 425.333 257.101 422.973H261.024C259.904 426.973 256.383 430.093 250.943 430.093Z" fill="#493728"/>
<path d="M269.904 429.733H266.264V407.813H269.904V411.373C271.144 408.933 273.503 407.413 276.983 407.413V411.173H276.024C272.543 411.173 269.904 412.733 269.904 417.813V429.733Z" fill="#493728"/>
<path d="M144.039 429.733H120.069V405.76H144.039V429.733Z" fill="#C0FFFF"/>
<path d="M123.403 426.4H140.705V409.093H123.403V426.4ZM144.039 433.066H120.069C118.228 433.066 116.736 431.573 116.736 429.733V405.76C116.736 403.92 118.228 402.426 120.069 402.426H144.039C145.879 402.426 147.372 403.92 147.372 405.76V429.733C147.372 431.573 145.879 433.066 144.039 433.066Z" fill="#493728"/>
<path d="M373.78 404.813H362.42V414.133H372.58V417.133H362.42V426.733H373.78V429.733H358.78V401.813H373.78V404.813Z" fill="#493728"/>
<path d="M387.047 430.093C381.927 430.093 378.34 427.293 378.1 423.293H381.847C382.047 425.413 383.927 427.013 387.02 427.013C389.9 427.013 391.487 425.573 391.487 423.773C391.487 418.893 378.54 421.733 378.54 413.573C378.54 410.213 381.687 407.453 386.58 407.453C391.407 407.453 394.607 410.053 394.847 414.333H391.22C391.047 412.133 389.367 410.533 386.46 410.533C383.78 410.533 382.167 411.813 382.167 413.573C382.167 418.773 394.9 415.933 395.047 423.773C395.047 427.373 391.9 430.093 387.047 430.093Z" fill="#493728"/>
<path d="M411.247 410.613C407.287 410.613 403.807 413.653 403.807 418.733C403.807 423.893 407.287 426.893 411.247 426.893C415.287 426.893 418.687 423.853 418.687 418.693C418.687 413.533 415.287 410.613 411.247 410.613ZM412.007 407.453C417.887 407.453 422.407 411.853 422.407 418.693C422.407 425.493 417.887 430.093 412.007 430.093C408.007 430.093 405.167 427.933 403.807 425.693V440.133H400.167V407.813H403.807V411.853C405.127 409.533 408.007 407.453 412.007 407.453Z" fill="#493728"/>
<path d="M430.847 429.733H427.207V407.813H430.847V411.373C432.087 408.933 434.447 407.413 437.927 407.413V411.173H436.967C433.487 411.173 430.847 412.733 430.847 417.813V429.733Z" fill="#493728"/>
<path d="M444.527 417.173H458.367C458.407 412.893 455.207 410.533 451.447 410.533C447.887 410.533 444.927 412.893 444.527 417.173ZM451.607 430.093C445.367 430.093 440.767 425.693 440.767 418.733C440.767 411.813 445.207 407.453 451.607 407.453C457.967 407.453 462.127 411.933 462.127 417.933C462.127 418.733 462.087 419.373 462.007 420.133H444.487C444.767 424.573 447.887 427.013 451.607 427.013C454.887 427.013 456.967 425.333 457.767 422.973H461.687C460.567 426.973 457.047 430.093 451.607 430.093Z" fill="#493728"/>
<path d="M474.686 430.093C469.566 430.093 465.967 427.293 465.727 423.293H469.486C469.686 425.413 471.566 427.013 474.646 427.013C477.526 427.013 479.127 425.573 479.127 423.773C479.127 418.893 466.167 421.733 466.167 413.573C466.167 410.213 469.327 407.453 474.207 407.453C479.047 407.453 482.246 410.053 482.486 414.333H478.846C478.686 412.133 477.006 410.533 474.086 410.533C471.406 410.533 469.807 411.813 469.807 413.573C469.807 418.773 482.526 415.933 482.686 423.773C482.686 427.373 479.526 430.093 474.686 430.093Z" fill="#493728"/>
<path d="M495.567 430.093C490.447 430.093 486.847 427.293 486.607 423.293H490.367C490.567 425.413 492.447 427.013 495.527 427.013C498.407 427.013 500.007 425.573 500.007 423.773C500.007 418.893 487.047 421.733 487.047 413.573C487.047 410.213 490.207 407.453 495.087 407.453C499.927 407.453 503.127 410.053 503.367 414.333H499.727C499.567 412.133 497.887 410.533 494.967 410.533C492.287 410.533 490.687 411.813 490.687 413.573C490.687 418.773 503.407 415.933 503.567 423.773C503.567 427.373 500.407 430.093 495.567 430.093Z" fill="#493728"/>
<path d="M518.247 426.893C522.047 426.893 525.767 424.293 525.767 418.733C525.767 413.213 522.127 410.613 518.367 410.613C514.527 410.613 511.047 413.213 511.047 418.733C511.047 424.293 514.447 426.893 518.247 426.893ZM518.247 430.093C512.047 430.093 507.327 425.693 507.327 418.733C507.327 411.813 512.207 407.453 518.407 407.453C524.647 407.453 529.487 411.813 529.487 418.733C529.487 425.693 524.487 430.093 518.247 430.093Z" fill="#493728"/>
<path d="M341.993 429.733H318.02V405.76H341.993V429.733Z" fill="#493728"/>
<path d="M321.353 426.4H338.66V409.093H321.353V426.4ZM341.993 433.066H318.02C316.179 433.066 314.687 431.573 314.687 429.733V405.76C314.687 403.92 316.179 402.426 318.02 402.426H341.993C343.833 402.426 345.327 403.92 345.327 405.76V429.733C345.327 431.573 343.833 433.066 341.993 433.066Z" fill="#493728"/>
</svg>
