<svg width="786" height="441" viewBox="0 0 786 441" fill="none" xmlns="http://www.w3.org/2000/svg">
<path d="M44.0857 402.027H59.8457V404.987H47.727V414.387H57.567V417.347H47.727V429.907H44.0857V402.027Z" fill="#493728"/>
<path d="M73.8071 427.067C77.6071 427.067 81.3257 424.467 81.3257 418.907C81.3257 413.387 77.6871 410.787 73.9284 410.787C70.0858 410.787 66.6071 413.387 66.6071 418.907C66.6071 424.467 70.0084 427.067 73.8071 427.067ZM73.8071 430.267C67.6071 430.267 62.8884 425.867 62.8884 418.907C62.8884 411.987 67.7684 407.627 73.9658 407.627C80.2071 407.627 85.0471 411.987 85.0471 418.907C85.0471 425.867 80.0471 430.267 73.8071 430.267Z" fill="#493728"/>
<path d="M99.607 410.787C95.607 410.787 92.2084 413.707 92.2084 418.867C92.2084 424.027 95.607 427.067 99.607 427.067C103.607 427.067 107.047 424.067 107.047 418.907C107.047 413.827 103.607 410.787 99.607 410.787ZM98.8884 407.627C102.966 407.627 105.766 409.707 107.047 411.987V407.987H110.727V429.907H107.047V425.827C105.727 428.187 102.888 430.267 98.8457 430.267C93.0084 430.267 88.4871 425.667 88.4871 418.867C88.4871 412.027 93.0084 407.627 98.8884 407.627Z" fill="#493728"/>
<path d="M148.526 417.507C148.526 413.027 146.127 410.747 142.526 410.747C138.846 410.747 136.328 413.107 136.328 417.827V429.907H132.727V417.507C132.727 413.027 130.328 410.747 126.727 410.747C123.047 410.747 120.528 413.107 120.528 417.827V429.907H116.888V407.987H120.528V411.147C121.968 408.827 124.567 407.587 127.448 407.587C131.047 407.587 134.047 409.187 135.487 412.467C136.768 409.307 139.888 407.587 143.247 407.587C148.247 407.587 152.127 410.707 152.127 416.987V429.907H148.526V417.507Z" fill="#493728"/>
<path d="M168.768 402.227H172.687L182.928 425.107L193.167 402.227H197.047V429.907H193.406V409.267L184.208 429.907H181.65L172.408 409.227V429.907H168.768V402.227Z" fill="#493728"/>
<path d="M203.208 407.987H206.848V429.907H203.208V407.987ZM202.61 401.947C202.61 400.547 203.687 399.467 205.088 399.467C206.408 399.467 207.487 400.547 207.487 401.947C207.487 403.347 206.408 404.427 205.088 404.427C203.687 404.427 202.61 403.347 202.61 401.947Z" fill="#493728"/>
<path d="M213.047 400.307H216.687V429.907H213.047V400.307Z" fill="#493728"/>
<path d="M222.888 400.307H226.528V417.707L234.966 407.987H240.047L229.727 418.907L240.086 429.907H235.127L226.528 420.227V429.907H222.888V400.307Z" fill="#493728"/>
<path d="M27.302 429.907H3.33337V405.933H27.302V429.907Z" fill="white"/>
<path d="M6.66667 426.573H23.9687V409.267H6.66667V426.573ZM27.302 433.24H3.33333C1.49213 433.24 0 431.747 0 429.907V405.933C0 404.093 1.49213 402.6 3.33333 402.6H27.302C29.1432 402.6 30.6353 404.093 30.6353 405.933V429.907C30.6353 431.747 29.1432 433.24 27.302 433.24Z" fill="#493728"/>
<path d="M593.572 404.987H582.214V414.307H592.374V417.307H582.214V426.907H593.572V429.907H578.572V401.987H593.572V404.987Z" fill="#493728"/>
<path d="M606.851 430.267C601.732 430.267 598.132 427.467 597.894 423.467H601.652C601.851 425.587 603.732 427.187 606.812 427.187C609.692 427.187 611.291 425.747 611.291 423.947C611.291 419.067 598.334 421.907 598.334 413.747C598.334 410.387 601.492 407.627 606.374 407.627C611.211 407.627 614.411 410.227 614.652 414.507H611.012C610.851 412.307 609.172 410.707 606.252 410.707C603.572 410.707 601.971 411.987 601.971 413.747C601.971 418.947 614.692 416.107 614.851 423.947C614.851 427.547 611.692 430.267 606.851 430.267Z" fill="#493728"/>
<path d="M631.05 410.787C627.091 410.787 623.613 413.827 623.613 418.907C623.613 424.067 627.091 427.067 631.05 427.067C635.091 427.067 638.49 424.027 638.49 418.867C638.49 413.707 635.091 410.787 631.05 410.787ZM631.81 407.627C637.69 407.627 642.211 412.027 642.211 418.867C642.211 425.667 637.69 430.267 631.81 430.267C627.81 430.267 624.971 428.107 623.613 425.867V440.307H619.971V407.987H623.613V412.027C624.93 409.707 627.81 407.627 631.81 407.627Z" fill="#493728"/>
<path d="M650.652 429.907H647.01V407.987H650.652V411.547C651.891 409.107 654.25 407.587 657.732 407.587V411.347H656.771C653.291 411.347 650.652 412.907 650.652 417.987V429.907Z" fill="#493728"/>
<path d="M664.331 417.347H678.17C678.211 413.067 675.01 410.707 671.25 410.707C667.69 410.707 664.732 413.067 664.331 417.347ZM671.411 430.267C665.172 430.267 660.57 425.867 660.57 418.907C660.57 411.987 665.01 407.627 671.411 407.627C677.771 407.627 681.93 412.107 681.93 418.107C681.93 418.907 681.891 419.547 681.81 420.307H664.291C664.57 424.747 667.69 427.187 671.411 427.187C674.69 427.187 676.771 425.507 677.57 423.147H681.49C680.371 427.147 676.848 430.267 671.411 430.267Z" fill="#493728"/>
<path d="M694.49 430.267C689.371 430.267 685.771 427.467 685.531 423.467H689.288C689.49 425.587 691.371 427.187 694.451 427.187C697.331 427.187 698.93 425.747 698.93 423.947C698.93 419.067 685.971 421.907 685.971 413.747C685.971 410.387 689.13 407.627 694.01 407.627C698.848 407.627 702.05 410.227 702.288 414.507H698.652C698.49 412.307 696.81 410.707 693.891 410.707C691.211 410.707 689.61 411.987 689.61 413.747C689.61 418.947 702.331 416.107 702.49 423.947C702.49 427.547 699.331 430.267 694.49 430.267Z" fill="#493728"/>
<path d="M715.371 430.267C710.25 430.267 706.65 427.467 706.408 423.467H710.17C710.371 425.587 712.25 427.187 715.328 427.187C718.208 427.187 719.81 425.747 719.81 423.947C719.81 419.067 706.848 421.907 706.848 413.747C706.848 410.387 710.008 407.627 714.888 407.627C719.73 407.627 722.93 410.227 723.17 414.507H719.528C719.371 412.307 717.687 410.707 714.768 410.707C712.088 410.707 710.49 411.987 710.49 413.747C710.49 418.947 723.208 416.107 723.371 423.947C723.371 427.547 720.208 430.267 715.371 430.267Z" fill="#493728"/>
<path d="M738.047 427.067C741.846 427.067 745.567 424.467 745.567 418.907C745.567 413.387 741.928 410.787 738.167 410.787C734.328 410.787 730.848 413.387 730.848 418.907C730.848 424.467 734.247 427.067 738.047 427.067ZM738.047 430.267C731.848 430.267 727.127 425.867 727.127 418.907C727.127 411.987 732.008 407.627 738.208 407.627C744.448 407.627 749.287 411.987 749.287 418.907C749.287 425.867 744.287 430.267 738.047 430.267Z" fill="#493728"/>
<path d="M561.787 429.907H537.819V405.933H561.787V429.907Z" fill="#493728"/>
<path d="M541.153 426.573H558.454V409.267H541.153V426.573ZM561.787 433.24H537.819C535.978 433.24 534.486 431.747 534.486 429.907V405.933C534.486 404.093 535.978 402.6 537.819 402.6H561.787C563.629 402.6 565.121 404.093 565.121 405.933V429.907C565.121 431.747 563.629 433.24 561.787 433.24Z" fill="#493728"/>
<path d="M311.768 430.187C306.17 430.187 302.208 427.067 302.13 422.467H306.01C306.25 424.787 307.888 427.107 311.768 427.107C315.288 427.107 317.37 425.107 317.37 422.467C317.37 414.947 302.288 419.747 302.288 409.387C302.288 404.787 306.01 401.667 311.528 401.667C316.848 401.667 320.328 404.587 320.768 408.827H316.768C316.528 406.947 314.768 404.827 311.37 404.787C308.37 404.707 306.01 406.267 306.01 409.267C306.01 416.467 321.05 411.987 321.05 422.307C321.05 426.267 317.81 430.187 311.768 430.187Z" fill="#493728"/>
<path d="M327.208 410.987H324.37V407.987H327.208V402.467H330.848V407.987H336.567V410.987H330.848V423.907C330.848 426.067 331.65 426.827 333.888 426.827H336.567V429.907H333.288C329.408 429.907 327.208 428.307 327.208 423.907V410.987Z" fill="#493728"/>
<path d="M343.367 417.347H357.208C357.247 413.067 354.047 410.707 350.288 410.707C346.73 410.707 343.768 413.067 343.367 417.347ZM350.448 430.267C344.208 430.267 339.61 425.867 339.61 418.907C339.61 411.987 344.05 407.627 350.448 407.627C356.807 407.627 360.968 412.107 360.968 418.107C360.968 418.907 360.928 419.547 360.848 420.307H343.328C343.61 424.747 346.73 427.187 350.448 427.187C353.73 427.187 355.807 425.507 356.607 423.147H360.528C359.408 427.147 355.888 430.267 350.448 430.267Z" fill="#493728"/>
<path d="M375.528 410.787C371.528 410.787 368.127 413.707 368.127 418.867C368.127 424.027 371.528 427.067 375.528 427.067C379.528 427.067 382.966 424.067 382.966 418.907C382.966 413.827 379.528 410.787 375.528 410.787ZM374.807 407.627C378.888 407.627 381.687 409.707 382.966 411.987V407.987H386.65V429.907H382.966V425.827C381.65 428.187 378.807 430.267 374.768 430.267C368.928 430.267 364.408 425.667 364.408 418.867C364.408 412.027 368.928 407.627 374.807 407.627Z" fill="#493728"/>
<path d="M424.448 417.507C424.448 413.027 422.047 410.747 418.448 410.747C414.768 410.747 412.247 413.107 412.247 417.827V429.907H408.65V417.507C408.65 413.027 406.247 410.747 402.65 410.747C398.968 410.747 396.448 413.107 396.448 417.827V429.907H392.807V407.987H396.448V411.147C397.888 408.827 400.487 407.587 403.367 407.587C406.968 407.587 409.968 409.187 411.408 412.467C412.687 409.307 415.807 407.587 419.167 407.587C424.167 407.587 428.047 410.707 428.047 416.987V429.907H424.448V417.507Z" fill="#493728"/>
<path d="M444.687 402.227H448.61L458.848 425.107L469.088 402.227H472.968V429.907H469.328V409.267L460.127 429.907H457.567L448.328 409.227V429.907H444.687V402.227Z" fill="#493728"/>
<path d="M479.127 407.987H482.768V429.907H479.127V407.987ZM478.528 401.947C478.528 400.547 479.61 399.467 481.008 399.467C482.328 399.467 483.408 400.547 483.408 401.947C483.408 403.347 482.328 404.427 481.008 404.427C479.61 404.427 478.528 403.347 478.528 401.947Z" fill="#493728"/>
<path d="M488.968 400.307H492.61V429.907H488.968V400.307Z" fill="#493728"/>
<path d="M498.807 400.307H502.448V417.707L510.888 407.987H515.968L505.65 418.907L516.008 429.907H511.047L502.448 420.227V429.907H498.807V400.307Z" fill="#493728"/>
<path d="M286.144 429.907H262.176V405.933H286.144V429.907Z" fill="#F5CFB2"/>
<path d="M265.51 426.573H282.811V409.267H265.51V426.573ZM286.144 433.24H262.176C260.335 433.24 258.843 431.747 258.843 429.907V405.933C258.843 404.093 260.335 402.6 262.176 402.6H286.144C287.986 402.6 289.478 404.093 289.478 405.933V429.907C289.478 431.747 287.986 433.24 286.144 433.24Z" fill="#493728"/>
<path d="M605.414 248.013C601.596 253.733 597.624 259.293 593.524 264.667C620.911 258.067 647.719 249.333 673.472 238.613C728.176 215.813 765.939 176.24 769.676 137.773C771.874 115.2 761.748 95.7333 740.399 81.4799C727.599 72.9466 713.235 68.6133 697.71 68.6133C689.466 68.6133 680.872 69.8266 672.099 72.2133C670.826 79.3866 669.412 86.5467 667.874 93.6267C687.726 87.4933 704.783 87.72 717.954 94.36C734.646 102.773 744.951 118.507 745.519 136.48C746.347 162.613 727.531 188.907 693.895 208.613C667.651 223.987 637.895 237.24 605.414 248.013ZM572.667 285.4C569.832 285.4 567.16 283.893 565.719 281.36C564.016 278.387 564.41 274.64 566.696 272.08C576.258 261.347 585.306 249.52 593.588 236.893C594.586 235.373 596.068 234.24 597.796 233.68C630.226 223.093 659.836 210.013 685.806 194.8C714.23 178.147 730.164 157.08 729.527 136.987C729.142 124.8 722.299 114.467 710.756 108.653C706.186 106.347 700.714 105.187 694.492 105.187C684.612 105.187 672.971 108.027 659.895 113.64C657.11 114.827 653.884 114.347 651.57 112.387C649.256 110.427 648.25 107.32 648.972 104.373C652.159 91.3733 654.919 78 657.176 64.6267C657.676 61.6667 659.784 59.24 662.639 58.3333C674.579 54.5333 686.379 52.6133 697.71 52.6133C716.454 52.6133 733.806 57.8533 749.283 68.1733C775.464 85.6533 788.363 110.92 785.603 139.32C781.299 183.587 739.702 228.347 679.626 253.373C645.899 267.427 610.431 278.147 574.207 285.253C573.692 285.36 573.176 285.4 572.667 285.4Z" fill="#493728"/>
<path d="M85.1671 16.5866C84.2938 30.8266 83.1951 64.9066 88.7151 105.92C95.3738 155.387 113.314 225.48 160.968 278.36C208.556 331.16 277.178 357.933 364.93 357.933C484.522 357.933 571.068 299.427 622.164 184.027C653.799 112.573 661.344 40.4532 663.043 16.5866H85.1671ZM364.93 373.933C272.415 373.933 199.774 345.36 149.02 289C98.5658 232.96 79.7218 159.427 72.7965 107.6C65.3325 51.72 69.6125 9.51992 69.7978 7.74659C70.2258 3.67993 73.6591 0.586566 77.7538 0.586566H671.504C673.664 0.586566 675.732 1.45331 677.238 2.99998C678.744 4.54664 679.56 6.63998 679.502 8.79998C679.399 12.52 676.532 100.747 636.794 190.493C613.292 243.587 581.718 285.933 542.944 316.387C494.335 354.573 434.442 373.933 364.93 373.933Z" fill="#493728"/>
<path d="M122.914 94.6266C129.407 182.72 168.79 338.707 366.304 338.707C546.782 338.707 602.048 182.72 618.874 94.6266H122.914Z" fill="white"/>
<path d="M366.304 338.707C506.435 338.707 571.076 244.667 600.852 161.387H133.603C154.923 244.667 212.946 338.707 366.304 338.707Z" fill="#F5CFB2"/>
<path d="M208.676 86.88C208.676 102.267 196.208 114.733 180.835 114.733C165.46 114.733 152.995 102.267 152.995 86.88C152.995 71.52 165.46 59.04 180.835 59.04C196.208 59.04 208.676 71.52 208.676 86.88Z" fill="white"/>
<path d="M169.495 92.5066C169.495 105.373 159.066 115.8 146.207 115.8C133.343 115.8 122.916 105.373 122.916 92.5066C122.916 79.6533 133.343 69.2267 146.207 69.2267C159.066 69.2267 169.495 79.6533 169.495 92.5066Z" fill="white"/>
<path d="M436.843 95.8133C436.843 106.12 428.482 114.48 418.17 114.48C407.854 114.48 399.494 106.12 399.494 95.8133C399.494 85.4933 407.854 77.1333 418.17 77.1333C428.482 77.1333 436.843 85.4933 436.843 95.8133Z" fill="white"/>
<path d="M263.066 81.5333C263.066 101.667 246.735 118 226.596 118C206.452 118 190.123 101.667 190.123 81.5333C190.123 61.3866 206.452 45.0532 226.596 45.0532C246.735 45.0532 263.066 61.3866 263.066 81.5333Z" fill="white"/>
<path d="M588.299 88.7066C588.299 108.84 571.967 125.173 551.83 125.173C531.687 125.173 515.359 108.84 515.359 88.7066C515.359 68.5599 531.687 52.2399 551.83 52.2399C571.967 52.2399 588.299 68.5599 588.299 88.7066Z" fill="white"/>
<path d="M295.908 92.5067C295.908 107.013 284.152 118.773 269.658 118.773C255.154 118.773 243.399 107.013 243.399 92.5067C243.399 78.0134 255.154 66.2533 269.658 66.2533C284.152 66.2533 295.908 78.0134 295.908 92.5067Z" fill="white"/>
<path d="M372.243 92.5066C372.243 103.827 363.068 113 351.758 113C340.439 113 331.268 103.827 331.268 92.5066C331.268 81.1999 340.439 72.0266 351.758 72.0266C363.068 72.0266 372.243 81.1999 372.243 92.5066Z" fill="white"/>
<path d="M409.523 83.1866C409.523 96.9999 398.326 108.2 384.516 108.2C370.707 108.2 359.507 96.9999 359.507 83.1866C359.507 69.3866 370.707 58.1866 384.516 58.1866C398.326 58.1866 409.523 69.3866 409.523 83.1866Z" fill="white"/>
<path d="M525.54 96.6799C525.54 110.493 514.34 121.693 500.528 121.693C486.719 121.693 475.522 110.493 475.522 96.6799C475.522 82.8799 486.719 71.6799 500.528 71.6799C514.34 71.6799 525.54 82.8799 525.54 96.6799Z" fill="white"/>
<path d="M616.163 93.8C616.163 104.28 607.659 112.787 597.171 112.787C586.678 112.787 578.174 104.28 578.174 93.8C578.174 83.3066 586.678 74.8 597.171 74.8C607.659 74.8 616.163 83.3066 616.163 93.8Z" fill="white"/>
<path d="M339.042 83.1466C339.042 101.173 324.418 115.8 306.379 115.8C288.342 115.8 273.719 101.173 273.719 83.1466C273.719 65.1066 288.342 50.4799 306.379 50.4799C324.418 50.4799 339.042 65.1066 339.042 83.1466Z" fill="white"/>
<path d="M481.623 92.5199C481.623 110.547 467.002 125.173 448.96 125.173C430.924 125.173 416.3 110.547 416.3 92.5199C416.3 74.4799 430.924 59.8532 448.96 59.8532C467.002 59.8532 481.623 74.4799 481.623 92.5199Z" fill="white"/>
<path d="M160.862 231.347C194.346 289.973 255.471 339 366.29 339C467.548 339 529.46 289.973 567.304 231.347H160.862Z" fill="#493728"/>
<path d="M169.126 229.653C208.56 296.907 274.88 331 366.29 331C449.812 331 514.706 296.72 559.207 229.12C559.424 228.36 559.754 227.64 560.194 226.96L560.284 226.827C560.636 226.28 561.023 225.667 561.408 225.053C561.954 224.2 562.486 223.36 563.01 222.507C563.396 221.893 563.774 221.28 564.144 220.667C564.732 219.707 565.308 218.733 565.882 217.773L566.858 216.12C567.616 214.827 568.366 213.52 569.103 212.213L570.159 210.32C570.616 209.493 571.087 208.64 571.551 207.787C571.908 207.12 572.271 206.453 572.627 205.787C573.083 204.933 573.526 204.093 573.967 203.24L574.958 201.347C575.662 199.973 576.354 198.6 577.035 197.227L577.999 195.253C578.398 194.427 578.795 193.613 579.184 192.8C579.53 192.067 579.858 191.373 580.183 190.68C580.558 189.88 580.927 189.08 581.291 188.28C581.616 187.587 581.939 186.88 582.258 186.173C582.65 185.307 583.034 184.427 583.418 183.56C583.856 182.56 584.286 181.587 584.707 180.6L584.82 180.333C585.207 179.44 585.59 178.547 585.964 177.653L586.868 175.467C587.186 174.707 587.495 173.947 587.8 173.187L589.786 168.173C590 167.613 590.215 167.067 590.423 166.52C590.932 165.187 591.431 163.867 591.918 162.547L593.234 158.92C593.262 158.853 593.287 158.773 593.316 158.693C600.667 138.133 606.608 116.133 610.975 93.3333C611.006 93.1333 611.042 92.9599 611.08 92.7865C610.26 87.7599 603.543 82.8 597.171 82.8C595.007 82.8 592.911 83.4266 591.11 84.6266C589.007 86.0133 586.372 86.3333 583.996 85.4933C581.62 84.64 579.784 82.7199 579.042 80.3066C575.343 68.3066 564.407 60.2399 551.83 60.2399C539.274 60.2399 528.343 68.28 524.631 80.2666C523.83 82.8533 521.772 84.8532 519.164 85.5865C516.56 86.3332 513.754 85.6933 511.718 83.9066C508.606 81.1866 504.631 79.6799 500.528 79.6799C494.986 79.6799 489.771 82.4132 486.58 86.9865C484.843 89.4665 481.844 90.7599 478.846 90.3199C475.843 89.8665 473.352 87.7599 472.414 84.8799C469.099 74.6932 459.675 67.8532 448.96 67.8532C439.812 67.8532 431.459 72.8799 427.162 80.9865C425.638 83.8532 422.54 85.5065 419.291 85.1865C416.963 84.9599 414.948 85.3999 413.052 86.4399C410.762 87.6933 408.003 87.7465 405.662 86.5865C403.32 85.4399 401.691 83.2 401.3 80.6266C400.051 72.3866 392.836 66.1865 384.516 66.1865C377.514 66.1865 371.131 70.6 368.634 77.16C367.823 79.2933 366.14 80.9866 364.01 81.8C361.878 82.6 359.5 82.48 357.475 81.4266C355.68 80.4933 353.758 80.0266 351.758 80.0266C347.96 80.0266 345.252 81.6533 343.651 83.0266C341.484 84.88 338.495 85.4399 335.806 84.5066C333.115 83.5599 331.128 81.2533 330.591 78.4666C328.37 66.88 318.187 58.4799 306.379 58.4799C297.346 58.4799 289.044 63.4132 284.712 71.3466C282.874 74.7199 278.896 76.32 275.242 75.1333C271.356 73.8933 267.188 73.9733 263.252 75.4399C259.183 76.9733 254.639 74.9733 253.019 70.9333C248.66 60.08 238.287 53.0532 226.596 53.0532C216.563 53.0532 207.156 58.4399 202.05 67.1066C200.966 68.9466 199.191 70.28 197.122 70.8C195.059 71.32 192.862 70.9999 191.031 69.9066C187.931 68.0266 184.404 67.0399 180.835 67.0399C174.012 67.0399 167.747 70.5065 164.074 76.3199C161.824 79.8799 157.196 81.08 153.49 79.0666C151.243 77.84 148.792 77.2266 146.207 77.2266C137.776 77.2266 130.916 84.0799 130.916 92.5066C130.916 92.8933 130.94 93.3465 130.992 93.9199C131.035 94.3865 131.034 94.8666 130.991 95.3466C132.712 117.693 136.198 139.24 141.358 159.4C141.378 159.48 141.398 159.56 141.414 159.627L141.742 160.88C142.056 162.08 142.38 163.293 142.711 164.507L142.794 164.813C143.007 165.587 143.219 166.36 143.438 167.147L144.114 169.48C144.312 170.16 144.516 170.853 144.724 171.56C144.955 172.333 145.192 173.12 145.435 173.907C145.652 174.6 145.874 175.307 146.095 176.013L146.147 176.173C146.374 176.893 146.596 177.613 146.828 178.32C147.088 179.133 147.358 179.933 147.628 180.747C148.058 182.027 148.454 183.187 148.859 184.347L148.999 184.747C149.227 185.4 149.454 186.053 149.687 186.707C149.955 187.467 150.227 188.2 150.499 188.933C150.775 189.68 151.051 190.427 151.331 191.173C151.611 191.92 151.892 192.653 152.178 193.4C152.486 194.187 152.806 195 153.126 195.813L153.414 196.533C153.583 196.96 153.754 197.387 153.93 197.813C154.474 199.16 155.031 200.493 155.599 201.827C155.832 202.373 156.074 202.92 156.316 203.48L156.467 203.827C156.82 204.627 157.176 205.44 157.536 206.253C157.839 206.92 158.152 207.613 158.468 208.293C158.85 209.133 159.228 209.933 159.607 210.733L159.863 211.28C160.084 211.76 160.304 212.227 160.53 212.693C161.119 213.907 161.718 215.12 162.328 216.333C162.654 216.973 162.988 217.627 163.324 218.28C163.802 219.213 164.279 220.133 164.766 221.04C165.099 221.68 165.434 222.293 165.768 222.907C166.235 223.76 166.687 224.587 167.144 225.4L167.232 225.56C167.551 226.133 167.87 226.707 168.194 227.267C168.202 227.28 168.226 227.32 168.242 227.36C168.66 228.08 168.954 228.853 169.126 229.653ZM366.29 347C313.391 347 267.711 335.907 230.522 314.053C198.92 295.48 173.147 268.987 153.915 235.307C153.486 234.56 153.187 233.76 153.02 232.933C152.58 232.133 152.151 231.36 151.724 230.573C151.347 229.88 150.986 229.213 150.628 228.533C150.118 227.573 149.61 226.587 149.104 225.613C148.748 224.92 148.388 224.227 148.036 223.533C147.384 222.227 146.746 220.933 146.12 219.64C145.874 219.133 145.632 218.613 145.391 218.107L145.135 217.56C144.726 216.693 144.324 215.84 143.932 214.973C143.602 214.267 143.266 213.52 142.934 212.787C142.548 211.92 142.175 211.08 141.803 210.227L141.652 209.88C141.395 209.293 141.136 208.693 140.883 208.107C140.279 206.68 139.687 205.267 139.112 203.853C138.916 203.373 138.726 202.893 138.534 202.413L138.263 201.72C137.922 200.867 137.582 200.013 137.252 199.16C136.95 198.373 136.655 197.6 136.363 196.827C136.066 196.04 135.772 195.253 135.484 194.467C135.195 193.68 134.906 192.893 134.623 192.107C134.378 191.413 134.132 190.72 133.89 190.013L133.751 189.613C133.323 188.387 132.903 187.16 132.494 185.933C132.17 184.96 131.882 184.107 131.604 183.253C131.36 182.493 131.123 181.747 130.887 180.987L130.835 180.827C130.602 180.08 130.37 179.347 130.14 178.6C129.888 177.773 129.638 176.96 129.392 176.133C129.171 175.387 128.958 174.667 128.746 173.933L128.043 171.493C127.81 170.68 127.584 169.853 127.359 169.027L127.278 168.72C126.93 167.453 126.59 166.187 126.259 164.92L125.854 163.373C125.83 163.28 125.807 163.187 125.787 163.093C120.332 141.707 116.68 118.867 114.936 95.2132C114.902 94.7599 114.907 94.3066 114.951 93.8666C114.928 93.3866 114.916 92.9466 114.916 92.5066C114.916 75.2533 128.954 61.2266 146.207 61.2266C149.082 61.2266 151.94 61.6266 154.69 62.4C161.4 55.2 170.779 51.0399 180.835 51.0399C184.81 51.0399 188.747 51.7199 192.49 53.0132C200.867 43.0266 213.382 37.0532 226.596 37.0532C242.464 37.0532 256.776 45.3333 264.723 58.6266C267.794 58.1733 270.93 58.1466 274.003 58.5333C281.626 48.5066 293.555 42.4799 306.379 42.4799C322.238 42.4799 336.32 51.6799 342.979 65.4132C347.539 63.9332 352.527 63.6133 357.299 64.5733C363.372 55.7466 373.551 50.1865 384.516 50.1865C397.532 50.1865 409.156 57.9999 414.454 69.3865C414.838 69.3465 415.222 69.2932 415.607 69.2532C423.16 58.4132 435.54 51.8532 448.96 51.8532C462.523 51.8532 474.835 58.5065 482.292 69.1865C487.631 65.6532 493.959 63.6799 500.528 63.6799C504.978 63.6799 509.343 64.5866 513.382 66.2933C521.2 52.8 535.652 44.2399 551.83 44.2399C568.498 44.2399 583.319 53.3065 590.958 67.5199C592.98 67.0399 595.063 66.8 597.171 66.8C611.33 66.8 627.164 78.3466 627.164 93.8C627.164 95.0666 626.874 96.1332 626.586 96.8799C622.095 120.2 616.003 142.707 608.476 163.813C608.45 163.893 608.42 163.973 608.391 164.067L607.522 166.453C607.326 167 607.128 167.547 606.928 168.093C606.423 169.453 605.9 170.84 605.374 172.227C605.152 172.813 604.92 173.4 604.688 173.987L602.638 179.173C602.312 179.987 601.986 180.787 601.656 181.573L600.723 183.827C600.328 184.773 599.927 185.707 599.523 186.653L599.404 186.92C598.956 187.96 598.51 188.987 598.056 190.013C597.659 190.92 597.255 191.827 596.843 192.747C596.51 193.493 596.171 194.227 595.831 194.96C595.45 195.8 595.066 196.627 594.676 197.453C594.33 198.2 593.98 198.947 593.623 199.68C593.223 200.533 592.803 201.387 592.384 202.253L591.374 204.32C590.654 205.773 589.93 207.213 589.195 208.64L588.154 210.64C587.684 211.547 587.219 212.427 586.742 213.32C586.374 214.013 585.995 214.72 585.615 215.413C585.127 216.32 584.636 217.2 584.146 218.093L583.04 220.08C582.267 221.453 581.472 222.827 580.668 224.2L579.639 225.933C579.039 226.947 578.43 227.973 577.812 228.987C577.416 229.64 577.012 230.28 576.61 230.933C576.087 231.787 575.554 232.627 575.014 233.48C574.8 234.253 574.471 234.987 574.026 235.68C552.408 269.173 525.711 295.533 494.674 314.027C457.962 335.907 414.768 347 366.29 347Z" fill="#493728"/>
<path d="M669.876 373.933H63.5164C59.099 373.933 55.5164 370.36 55.5164 365.933C55.5164 361.52 59.099 357.933 63.5164 357.933H669.876C674.294 357.933 677.876 361.52 677.876 365.933C677.876 370.36 674.294 373.933 669.876 373.933Z" fill="#493728"/>
<path d="M184.162 188.6C184.162 192.653 180.878 195.933 176.828 195.933C172.779 195.933 169.495 192.653 169.495 188.6C169.495 184.547 172.779 181.267 176.828 181.267C180.878 181.267 184.162 184.547 184.162 188.6Z" fill="white"/>
<path d="M293.302 211.293C293.302 215.347 290.018 218.627 285.968 218.627C281.92 218.627 278.635 215.347 278.635 211.293C278.635 207.24 281.92 203.96 285.968 203.96C290.018 203.96 293.302 207.24 293.302 211.293Z" fill="white"/>
<path d="M245.912 184.693C245.912 188.747 242.628 192.027 238.579 192.027C234.531 192.027 231.246 188.747 231.246 184.693C231.246 180.64 234.531 177.36 238.579 177.36C242.628 177.36 245.912 180.64 245.912 184.693Z" fill="white"/>
<path d="M383.148 192.027C383.148 196.08 379.866 199.36 375.815 199.36C371.766 199.36 368.482 196.08 368.482 192.027C368.482 187.973 371.766 184.693 375.815 184.693C379.866 184.693 383.148 187.973 383.148 192.027Z" fill="white"/>
<path d="M456.295 207.293C456.295 211.347 453.011 214.627 448.962 214.627C444.912 214.627 441.628 211.347 441.628 207.293C441.628 203.24 444.912 199.96 448.962 199.96C453.011 199.96 456.295 203.24 456.295 207.293Z" fill="white"/>
<path d="M553.706 181.267C553.706 185.32 550.42 188.6 546.372 188.6C542.32 188.6 539.039 185.32 539.039 181.267C539.039 177.213 542.32 173.933 546.372 173.933C550.42 173.933 553.706 177.213 553.706 181.267Z" fill="white"/>
<path d="M212.01 210.627C212.01 212.467 210.516 213.96 208.676 213.96C206.835 213.96 205.343 212.467 205.343 210.627C205.343 208.787 206.835 207.293 208.676 207.293C210.516 207.293 212.01 208.787 212.01 210.627Z" fill="white"/>
<path d="M307.687 186.853C307.687 188.693 306.195 190.187 304.354 190.187C302.512 190.187 301.02 188.693 301.02 186.853C301.02 185.013 302.512 183.52 304.354 183.52C306.195 183.52 307.687 185.013 307.687 186.853Z" fill="white"/>
<path d="M478.855 181.267C478.855 183.107 477.363 184.6 475.522 184.6C473.68 184.6 472.188 183.107 472.188 181.267C472.188 179.427 473.68 177.933 475.522 177.933C477.363 177.933 478.855 179.427 478.855 181.267Z" fill="white"/>
<path d="M421.502 197.44C421.502 199.28 420.01 200.773 418.168 200.773C416.327 200.773 414.835 199.28 414.835 197.44C414.835 195.6 416.327 194.107 418.168 194.107C420.01 194.107 421.502 195.6 421.502 197.44Z" fill="white"/>
<path d="M522.026 207.293C522.026 209.133 520.534 210.627 518.692 210.627C516.851 210.627 515.359 209.133 515.359 207.293C515.359 205.453 516.851 203.96 518.692 203.96C520.534 203.96 522.026 205.453 522.026 207.293Z" fill="white"/>
<path d="M351.04 177.933C351.04 179.773 349.546 181.267 347.707 181.267C345.864 181.267 344.374 179.773 344.374 177.933C344.374 176.093 345.864 174.6 347.707 174.6C349.546 174.6 351.04 176.093 351.04 177.933Z" fill="white"/>
<path d="M357.707 215.293C357.707 217.133 356.212 218.627 354.374 218.627C352.531 218.627 351.04 217.133 351.04 215.293C351.04 213.453 352.531 211.96 354.374 211.96C356.212 211.96 357.707 213.453 357.707 215.293Z" fill="white"/>
<path d="M600.232 170.893H134C129.582 170.893 126 167.32 126 162.893C126 158.48 129.582 154.893 134 154.893H600.232C604.651 154.893 608.232 158.48 608.232 162.893C608.232 167.32 604.651 170.893 600.232 170.893Z" fill="#493728"/>
</svg>
