<svg width="732" height="441" viewBox="0 0 732 441" fill="none" xmlns="http://www.w3.org/2000/svg">
<path d="M550.832 248.307C547.015 254.013 543.045 259.573 538.941 264.96C566.331 258.36 593.136 249.627 618.891 238.893C673.595 216.107 711.357 176.533 715.097 138.067C717.291 115.493 707.165 96.0267 685.817 81.7733C673.017 73.2267 658.655 68.9067 643.128 68.9067C634.884 68.9067 626.288 70.12 617.516 72.5067C616.244 79.68 614.829 86.8399 613.291 93.9199C633.143 87.7866 650.2 88.0133 663.373 94.6533C680.064 103.067 690.368 118.8 690.937 136.76C691.767 162.907 672.949 189.2 639.313 208.907C613.061 224.28 583.308 237.533 550.832 248.307ZM518.085 285.693C515.252 285.693 512.579 284.187 511.137 281.653C509.436 278.68 509.828 274.933 512.113 272.373C521.684 261.64 530.732 249.8 539.007 237.187C540.003 235.667 541.488 234.533 543.216 233.96C575.637 223.387 605.248 210.32 631.224 195.093C659.648 178.44 675.583 157.373 674.945 137.267C674.559 125.08 667.717 114.76 656.175 108.947C651.604 106.64 646.133 105.48 639.908 105.48C630.028 105.48 618.387 108.32 605.312 113.92C602.527 115.12 599.303 114.64 596.988 112.68C594.673 110.72 593.667 107.613 594.389 104.667C597.577 91.6667 600.336 78.2933 602.595 64.9199C603.093 61.9599 605.201 59.5334 608.056 58.6267C619.996 54.8267 631.799 52.9067 643.128 52.9067C661.872 52.9067 679.223 58.1333 694.7 68.4667C720.883 85.9467 733.781 111.213 731.023 139.613C726.719 183.88 685.12 228.64 625.045 253.667C591.317 267.72 555.848 278.44 519.625 285.547C519.111 285.653 518.596 285.693 518.085 285.693Z" fill="#493728"/>
<path d="M30.5827 16.8798C29.7107 31.1198 28.6107 65.1865 34.1334 106.213C40.7907 155.68 58.7307 225.76 106.387 278.653C153.975 331.453 222.597 358.227 310.348 358.227C429.791 358.227 516.276 299.853 567.401 184.72C599.143 113.253 606.745 40.8132 608.456 16.8798H30.5827ZM310.348 374.227C217.833 374.227 145.192 345.653 94.4387 289.293C43.9854 233.253 25.1401 159.72 18.2147 107.893C10.7481 52.0132 15.0281 9.8132 15.2147 8.03987C15.6414 3.9732 19.0747 0.87984 23.1694 0.87984H616.923C619.083 0.87984 621.151 1.74658 622.657 3.29325C624.163 4.85325 624.979 6.93325 624.92 9.09325C624.817 12.8133 621.949 101.04 582.213 190.786C558.711 243.866 527.136 286.226 488.363 316.68C439.752 354.866 379.86 374.227 310.348 374.227Z" fill="#493728"/>
<path d="M106.279 231.64C139.764 290.267 200.888 339.28 311.709 339.28C412.969 339.28 474.879 290.267 512.721 231.64H106.279Z" fill="#493728"/>
<path d="M120.563 239.64C160.567 300.467 224.793 331.28 311.709 331.28C390.911 331.28 453.357 300.467 497.552 239.64H120.563ZM311.709 347.28C258.808 347.28 213.128 336.2 175.939 314.347C144.337 295.773 118.564 269.28 99.332 235.6C97.9186 233.12 97.9293 230.08 99.36 227.627C100.792 225.16 103.428 223.64 106.279 223.64H512.721C515.651 223.64 518.345 225.24 519.747 227.813C521.148 230.387 521.032 233.52 519.443 235.973C497.827 269.467 471.128 295.827 440.092 314.32C403.383 336.2 360.189 347.28 311.709 347.28Z" fill="#493728"/>
<path d="M614.36 374.227H8C3.58267 374.227 0 370.653 0 366.227C0 361.813 3.58267 358.227 8 358.227H614.36C618.777 358.227 622.36 361.813 622.36 366.227C622.36 370.653 618.777 374.227 614.36 374.227Z" fill="#493728"/>
<path d="M261.583 405.28H250.223V414.6H260.383V417.6H250.223V427.2H261.583V430.2H246.583V402.28H261.583V405.28Z" fill="#493728"/>
<path d="M274.864 430.56C269.745 430.56 266.143 427.76 265.903 423.76H269.663C269.864 425.88 271.745 427.48 274.823 427.48C277.703 427.48 279.304 426.04 279.304 424.24C279.304 419.36 266.343 422.2 266.343 414.04C266.343 410.68 269.501 407.92 274.383 407.92C279.223 407.92 282.424 410.52 282.663 414.8H279.024C278.864 412.6 277.181 411 274.263 411C271.583 411 269.984 412.28 269.984 414.04C269.984 419.24 282.703 416.4 282.864 424.24C282.864 427.84 279.703 430.56 274.864 430.56Z" fill="#493728"/>
<path d="M299.061 411.08C295.101 411.08 291.621 414.12 291.621 419.2C291.621 424.36 295.101 427.36 299.061 427.36C303.101 427.36 306.501 424.32 306.501 419.16C306.501 414 303.101 411.08 299.061 411.08ZM299.823 407.92C305.703 407.92 310.22 412.32 310.22 419.16C310.22 425.96 305.703 430.56 299.823 430.56C295.823 430.56 292.981 428.4 291.621 426.16V440.6H287.981V408.28H291.621V412.32C292.941 410 295.823 407.92 299.823 407.92Z" fill="#493728"/>
<path d="M318.663 430.2H315.024V408.28H318.663V411.84C319.903 409.4 322.263 407.88 325.741 407.88V411.64H324.783C321.303 411.64 318.663 413.2 318.663 418.28V430.2Z" fill="#493728"/>
<path d="M332.34 417.64H346.181C346.22 413.36 343.02 411 339.263 411C335.703 411 332.741 413.36 332.34 417.64ZM339.421 430.56C333.181 430.56 328.583 426.16 328.583 419.2C328.583 412.28 333.024 407.92 339.421 407.92C345.78 407.92 349.941 412.4 349.941 418.4C349.941 419.2 349.9 419.84 349.823 420.6H332.303C332.583 425.04 335.703 427.48 339.421 427.48C342.703 427.48 344.78 425.8 345.58 423.44H349.501C348.383 427.44 344.861 430.56 339.421 430.56Z" fill="#493728"/>
<path d="M362.501 430.56C357.383 430.56 353.78 427.76 353.541 423.76H357.303C357.501 425.88 359.383 427.48 362.46 427.48C365.34 427.48 366.941 426.04 366.941 424.24C366.941 419.36 353.981 422.2 353.981 414.04C353.981 410.68 357.14 407.92 362.02 407.92C366.861 407.92 370.061 410.52 370.303 414.8H366.66C366.501 412.6 364.82 411 361.9 411C359.22 411 357.621 412.28 357.621 414.04C357.621 419.24 370.34 416.4 370.501 424.24C370.501 427.84 367.34 430.56 362.501 430.56Z" fill="#493728"/>
<path d="M383.38 430.56C378.26 430.56 374.66 427.76 374.421 423.76H378.179C378.38 425.88 380.26 427.48 383.34 427.48C386.22 427.48 387.82 426.04 387.82 424.24C387.82 419.36 374.861 422.2 374.861 414.04C374.861 410.68 378.02 407.92 382.9 407.92C387.739 407.92 390.939 410.52 391.179 414.8H387.541C387.38 412.6 385.7 411 382.78 411C380.101 411 378.499 412.28 378.499 414.04C378.499 419.24 391.22 416.4 391.38 424.24C391.38 427.84 388.22 430.56 383.38 430.56Z" fill="#493728"/>
<path d="M406.059 427.36C409.859 427.36 413.579 424.76 413.579 419.2C413.579 413.68 409.939 411.08 406.179 411.08C402.337 411.08 398.859 413.68 398.859 419.2C398.859 424.76 402.26 427.36 406.059 427.36ZM406.059 430.56C399.859 430.56 395.14 426.16 395.14 419.2C395.14 412.28 400.02 407.92 406.217 407.92C412.457 407.92 417.299 412.28 417.299 419.2C417.299 426.16 412.299 430.56 406.059 430.56Z" fill="#493728"/>
<path d="M229.801 430.2H205.829V406.227H229.801V430.2Z" fill="#493728"/>
<path d="M209.163 426.867H226.468V409.56H209.163V426.867ZM229.801 433.533H205.829C203.989 433.533 202.496 432.04 202.496 430.2V406.227C202.496 404.387 203.989 402.893 205.829 402.893H229.801C231.641 402.893 233.135 404.387 233.135 406.227V430.2C233.135 432.04 231.641 433.533 229.801 433.533Z" fill="#493728"/>
</svg>
