<svg width="724" height="440" viewBox="0 0 724 440" fill="none" xmlns="http://www.w3.org/2000/svg">
<path d="M60.0559 95.8534C66.6212 184.227 106.213 340.347 304.1 340.347C484.913 340.347 540.393 184.227 557.313 95.8534H60.0559Z" fill="#F5CFB2"/>
<path d="M98.6826 232.56C132.163 291.2 193.288 340.213 304.107 340.213C405.367 340.213 467.273 291.2 505.127 232.56H98.6826Z" fill="#493728"/>
<path d="M68.7627 103.853C77.2614 193.067 120.048 332.347 304.1 332.347C471.873 332.347 528.487 193.44 547.54 103.853H68.7627ZM304.1 348.347C214.643 348.347 147.253 317.24 103.804 255.867C66.976 203.853 55.3494 140.453 52.0787 96.44C51.9134 94.2267 52.6814 92.04 54.1934 90.4C55.7081 88.7733 57.8307 87.8534 60.056 87.8534H557.313C559.7 87.8534 561.967 88.9068 563.487 90.7468C565.007 92.5868 565.62 95.0134 565.167 97.3468C556.78 141.213 538.393 204.36 498.5 256.12C451.353 317.32 385.94 348.347 304.1 348.347Z" fill="#493728"/>
<path d="M543.233 247.533C539.407 253.253 535.447 258.813 531.34 264.187C558.727 257.587 585.54 248.853 611.286 238.133C665.993 215.333 703.753 175.76 707.5 137.293C709.687 114.72 699.566 95.2532 678.22 80.9999C665.42 72.4665 651.06 68.1332 635.526 68.1332C627.286 68.1332 618.686 69.3465 609.913 71.7332C608.646 78.9065 607.233 86.0666 605.686 93.1466C625.54 87.0133 642.607 87.2533 655.767 93.88C672.46 102.293 682.767 118.027 683.34 136C684.167 162.133 665.353 188.427 631.713 208.133C605.46 223.507 575.713 236.76 543.233 247.533ZM510.486 284.92C507.646 284.92 504.98 283.413 503.54 280.88C501.833 277.907 502.233 274.16 504.513 271.6C514.073 260.867 523.127 249.04 531.407 236.413C532.407 234.893 533.886 233.76 535.62 233.2C568.046 222.613 597.646 209.533 623.62 194.32C652.046 177.667 667.98 156.6 667.34 136.507C666.953 124.32 660.113 113.987 648.567 108.173C644.007 105.867 638.526 104.707 632.313 104.707C622.433 104.707 610.793 107.547 597.713 113.16C594.926 114.347 591.7 113.867 589.393 111.907C587.073 109.947 586.073 106.84 586.793 103.893C589.98 90.8932 592.74 77.52 594.993 64.1466C595.486 61.1866 597.606 58.7599 600.46 57.8533C612.393 54.0533 624.193 52.1332 635.526 52.1332C654.273 52.1332 671.62 57.3732 687.1 67.6932C713.287 85.1732 726.18 110.44 723.42 138.84C719.113 183.107 677.513 227.867 617.446 252.893C583.713 266.947 548.246 277.667 512.02 284.773C511.513 284.88 510.993 284.92 510.486 284.92Z" fill="#493728"/>
<path d="M22.9853 16.1066C22.112 30.3466 21.0133 64.4266 26.5333 105.44C33.1906 154.907 51.1306 225 98.7866 277.88C146.373 330.68 214.993 357.453 302.745 357.453C422.34 357.453 508.887 298.947 559.98 183.547C591.62 112.093 599.167 39.9733 600.86 16.1066H22.9853ZM302.745 373.453C210.231 373.453 137.589 344.88 86.8373 288.52C36.384 232.48 17.5399 158.947 10.6146 107.12C3.14928 51.2401 7.43065 9.04001 7.61598 7.26667C8.04265 3.20001 11.4773 0.106647 15.572 0.106647H609.327C611.487 0.106647 613.553 0.973391 615.06 2.52006C616.567 4.06672 617.38 6.16006 617.313 8.32006C617.22 12.0401 614.353 100.267 574.607 190.013C551.113 243.107 519.527 285.453 480.767 315.907C432.153 354.093 372.26 373.453 302.745 373.453Z" fill="#493728"/>
<path d="M614.353 373.453H8C3.58267 373.453 0 369.88 0 365.453C0 361.04 3.58267 357.453 8 357.453H614.353C618.78 357.453 622.353 361.04 622.353 365.453C622.353 369.88 618.78 373.453 614.353 373.453Z" fill="#493728"/>
<path d="M113.349 129.707C113.349 133.76 110.061 137.04 106.016 137.04C101.963 137.04 98.6826 133.76 98.6826 129.707C98.6826 125.653 101.963 122.373 106.016 122.373C110.061 122.373 113.349 125.653 113.349 129.707Z" fill="white"/>
<path d="M170.231 177.453C170.231 181.493 166.947 184.787 162.897 184.787C158.851 184.787 155.564 181.493 155.564 177.453C155.564 173.4 158.851 170.12 162.897 170.12C166.947 170.12 170.231 173.4 170.231 177.453Z" fill="white"/>
<path d="M339.567 212.107C339.567 216.147 336.287 219.44 332.233 219.44C328.18 219.44 324.905 216.147 324.905 212.107C324.905 208.053 328.18 204.773 332.233 204.773C336.287 204.773 339.567 208.053 339.567 212.107Z" fill="white"/>
<path d="M133.564 206.4C133.564 210.453 130.28 213.733 126.231 213.733C122.184 213.733 118.897 210.453 118.897 206.4C118.897 202.347 122.184 199.067 126.231 199.067C130.28 199.067 133.564 202.347 133.564 206.4Z" fill="white"/>
<path d="M203.572 137.04C203.572 141.093 200.284 144.373 196.239 144.373C192.185 144.373 188.905 141.093 188.905 137.04C188.905 132.987 192.185 129.707 196.239 129.707C200.284 129.707 203.572 132.987 203.572 137.04Z" fill="white"/>
<path d="M311.783 147.627C311.783 151.68 308.499 154.96 304.449 154.96C300.404 154.96 297.116 151.68 297.116 147.627C297.116 143.573 300.404 140.293 304.449 140.293C308.499 140.293 311.783 143.573 311.783 147.627Z" fill="white"/>
<path d="M368.473 129.707C368.473 133.76 365.18 137.04 361.14 137.04C357.087 137.04 353.807 133.76 353.807 129.707C353.807 125.653 357.087 122.373 361.14 122.373C365.18 122.373 368.473 125.653 368.473 129.707Z" fill="white"/>
<path d="M466.473 159.733C466.473 163.787 463.18 167.067 459.14 167.067C455.087 167.067 451.807 163.787 451.807 159.733C451.807 155.68 455.087 152.4 459.14 152.4C463.18 152.4 466.473 155.68 466.473 159.733Z" fill="white"/>
<path d="M438.233 198.12C438.233 202.16 434.953 205.453 430.9 205.453C426.847 205.453 423.567 202.16 423.567 198.12C423.567 194.067 426.847 190.787 430.9 190.787C434.953 190.787 438.233 194.067 438.233 198.12Z" fill="white"/>
<path d="M143.935 144.293C143.935 146.133 142.443 147.627 140.601 147.627C138.761 147.627 137.268 146.133 137.268 144.293C137.268 142.453 138.761 140.96 140.601 140.96C142.443 140.96 143.935 142.453 143.935 144.293Z" fill="white"/>
<path d="M233.787 159.733C233.787 161.573 232.295 163.067 230.453 163.067C228.612 163.067 227.12 161.573 227.12 159.733C227.12 157.893 228.612 156.4 230.453 156.4C232.295 156.4 233.787 157.893 233.787 159.733Z" fill="white"/>
<path d="M217.564 194.787C217.564 196.627 216.072 198.12 214.231 198.12C212.389 198.12 210.897 196.627 210.897 194.787C210.897 192.947 212.389 191.453 214.231 191.453C216.072 191.453 217.564 192.947 217.564 194.787Z" fill="white"/>
<path d="M409.567 144.373C409.567 146.213 408.073 147.707 406.233 147.707C404.393 147.707 402.9 146.213 402.9 144.373C402.9 142.533 404.393 141.04 406.233 141.04C408.073 141.04 409.567 142.533 409.567 144.373Z" fill="white"/>
<path d="M346.233 176.147C346.233 177.987 344.74 179.48 342.9 179.48C341.06 179.48 339.567 177.987 339.567 176.147C339.567 174.307 341.06 172.813 342.9 172.813C344.74 172.813 346.233 174.307 346.233 176.147Z" fill="white"/>
<path d="M391.567 184.787C391.567 186.627 390.073 188.12 388.233 188.12C386.393 188.12 384.9 186.627 384.9 184.787C384.9 182.947 386.393 181.453 388.233 181.453C390.073 181.453 391.567 182.947 391.567 184.787Z" fill="white"/>
<path d="M508.46 137.04C508.46 138.88 506.967 140.373 505.127 140.373C503.287 140.373 501.793 138.88 501.793 137.04C501.793 135.2 503.287 133.707 505.127 133.707C506.967 133.707 508.46 135.2 508.46 137.04Z" fill="white"/>
<path d="M451.807 124.787C451.807 126.627 450.313 128.12 448.473 128.12C446.633 128.12 445.14 126.627 445.14 124.787C445.14 122.947 446.633 121.453 448.473 121.453C450.313 121.453 451.807 122.947 451.807 124.787Z" fill="white"/>
<path d="M496.233 191.453C496.233 193.293 494.74 194.787 492.9 194.787C491.06 194.787 489.567 193.293 489.567 191.453C489.567 189.613 491.06 188.12 492.9 188.12C494.74 188.12 496.233 189.613 496.233 191.453Z" fill="white"/>
<path d="M258.795 124.787C258.795 126.627 257.303 128.12 255.461 128.12C253.62 128.12 252.128 126.627 252.128 124.787C252.128 122.947 253.62 121.453 255.461 121.453C257.303 121.453 258.795 122.947 258.795 124.787Z" fill="white"/>
<path d="M274.231 188.12C274.231 189.96 272.739 191.453 270.897 191.453C269.056 191.453 267.564 189.96 267.564 188.12C267.564 186.28 269.056 184.787 270.897 184.787C272.739 184.787 274.231 186.28 274.231 188.12Z" fill="white"/>
<path d="M408.527 404.507H397.167V413.827H407.327V416.827H397.167V426.427H408.527V429.427H393.527V401.507H408.527V404.507Z" fill="#493728"/>
<path d="M421.807 429.787C416.687 429.787 413.087 426.987 412.847 422.987H416.607C416.807 425.107 418.687 426.707 421.767 426.707C424.647 426.707 426.247 425.267 426.247 423.467C426.247 418.587 413.287 421.427 413.287 413.267C413.287 409.907 416.447 407.147 421.327 407.147C426.167 407.147 429.367 409.747 429.607 414.027H425.967C425.807 411.827 424.127 410.227 421.207 410.227C418.527 410.227 416.927 411.507 416.927 413.267C416.927 418.467 429.647 415.627 429.807 423.467C429.807 427.067 426.647 429.787 421.807 429.787Z" fill="#493728"/>
<path d="M446.007 410.307C442.047 410.307 438.567 413.347 438.567 418.427C438.567 423.587 442.047 426.587 446.007 426.587C450.047 426.587 453.447 423.547 453.447 418.387C453.447 413.227 450.047 410.307 446.007 410.307ZM446.767 407.147C452.647 407.147 457.167 411.547 457.167 418.387C457.167 425.187 452.647 429.787 446.767 429.787C442.767 429.787 439.927 427.627 438.567 425.387V439.827H434.927V407.507H438.567V411.547C439.887 409.227 442.767 407.147 446.767 407.147Z" fill="#493728"/>
<path d="M465.607 429.427H461.967V407.507H465.607V411.067C466.847 408.627 469.207 407.107 472.687 407.107V410.867H471.727C468.247 410.867 465.607 412.427 465.607 417.507V429.427Z" fill="#493728"/>
<path d="M479.287 416.867H493.127C493.167 412.587 489.967 410.227 486.207 410.227C482.647 410.227 479.687 412.587 479.287 416.867ZM486.367 429.787C480.127 429.787 475.527 425.387 475.527 418.427C475.527 411.507 479.967 407.147 486.367 407.147C492.727 407.147 496.887 411.627 496.887 417.627C496.887 418.427 496.847 419.067 496.767 419.827H479.247C479.527 424.267 482.647 426.707 486.367 426.707C489.647 426.707 491.727 425.027 492.527 422.667H496.447C495.327 426.667 491.807 429.787 486.367 429.787Z" fill="#493728"/>
<path d="M509.447 429.787C504.327 429.787 500.727 426.987 500.487 422.987H504.247C504.447 425.107 506.327 426.707 509.407 426.707C512.287 426.707 513.887 425.267 513.887 423.467C513.887 418.587 500.927 421.427 500.927 413.267C500.927 409.907 504.087 407.147 508.967 407.147C513.807 407.147 517.007 409.747 517.247 414.027H513.607C513.447 411.827 511.767 410.227 508.847 410.227C506.167 410.227 504.567 411.507 504.567 413.267C504.567 418.467 517.287 415.627 517.447 423.467C517.447 427.067 514.287 429.787 509.447 429.787Z" fill="#493728"/>
<path d="M530.327 429.787C525.207 429.787 521.607 426.987 521.367 422.987H525.127C525.327 425.107 527.207 426.707 530.287 426.707C533.167 426.707 534.767 425.267 534.767 423.467C534.767 418.587 521.807 421.427 521.807 413.267C521.807 409.907 524.967 407.147 529.847 407.147C534.687 407.147 537.887 409.747 538.127 414.027H534.487C534.327 411.827 532.647 410.227 529.727 410.227C527.047 410.227 525.447 411.507 525.447 413.267C525.447 418.467 538.167 415.627 538.327 423.467C538.327 427.067 535.167 429.787 530.327 429.787Z" fill="#493728"/>
<path d="M553.006 426.587C556.793 426.587 560.513 423.987 560.513 418.427C560.513 412.907 556.886 410.307 553.126 410.307C549.273 410.307 545.793 412.907 545.793 418.427C545.793 423.987 549.206 426.587 553.006 426.587ZM553.006 429.787C546.793 429.787 542.086 425.387 542.086 418.427C542.086 411.507 546.966 407.147 553.153 407.147C559.393 407.147 564.233 411.507 564.233 418.427C564.233 425.387 559.233 429.787 553.006 429.787Z" fill="#493728"/>
<path d="M376.74 429.427H352.767V405.453H376.74V429.427Z" fill="#493728"/>
<path d="M356.1 426.093H373.407V408.787H356.1V426.093ZM376.74 432.76H352.767C350.927 432.76 349.433 431.267 349.433 429.427V405.453C349.433 403.613 350.927 402.12 352.767 402.12H376.74C378.58 402.12 380.073 403.613 380.073 405.453V429.427C380.073 431.267 378.58 432.76 376.74 432.76Z" fill="#493728"/>
<path d="M126.721 429.707C121.124 429.707 117.161 426.587 117.081 421.987H120.961C121.201 424.307 122.841 426.627 126.721 426.627C130.24 426.627 132.32 424.627 132.32 421.987C132.32 414.467 117.243 419.267 117.243 408.907C117.243 404.307 120.961 401.187 126.483 401.187C131.8 401.187 135.281 404.107 135.721 408.347H131.721C131.483 406.467 129.721 404.347 126.32 404.307C123.32 404.227 120.961 405.787 120.961 408.787C120.961 415.987 136 411.507 136 421.827C136 425.787 132.761 429.707 126.721 429.707Z" fill="#493728"/>
<path d="M142.161 410.507H139.32V407.507H142.161V401.987H145.8V407.507H151.521V410.507H145.8V423.427C145.8 425.587 146.599 426.347 148.841 426.347H151.521V429.427H148.24C144.36 429.427 142.161 427.827 142.161 423.427V410.507Z" fill="#493728"/>
<path d="M158.32 416.867H172.159C172.201 412.587 169 410.227 165.24 410.227C161.681 410.227 158.721 412.587 158.32 416.867ZM165.403 429.787C159.161 429.787 154.56 425.387 154.56 418.427C154.56 411.507 159 407.147 165.403 407.147C171.761 407.147 175.92 411.627 175.92 417.627C175.92 418.427 175.88 419.067 175.8 419.827H158.281C158.56 424.267 161.681 426.707 165.403 426.707C168.681 426.707 170.761 425.027 171.56 422.667H175.48C174.36 426.667 170.839 429.787 165.403 429.787Z" fill="#493728"/>
<path d="M190.48 410.307C186.48 410.307 183.081 413.227 183.081 418.387C183.081 423.547 186.48 426.587 190.48 426.587C194.48 426.587 197.92 423.587 197.92 418.427C197.92 413.347 194.48 410.307 190.48 410.307ZM189.761 407.147C193.839 407.147 196.639 409.227 197.92 411.507V407.507H201.599V429.427H197.92V425.347C196.599 427.707 193.761 429.787 189.719 429.787C183.88 429.787 179.36 425.187 179.36 418.387C179.36 411.547 183.88 407.147 189.761 407.147Z" fill="#493728"/>
<path d="M239.399 417.027C239.399 412.547 237 410.267 233.399 410.267C229.719 410.267 227.201 412.627 227.201 417.347V429.427H223.599V417.027C223.599 412.547 221.201 410.267 217.599 410.267C213.92 410.267 211.403 412.627 211.403 417.347V429.427H207.761V407.507H211.403V410.667C212.841 408.347 215.44 407.107 218.32 407.107C221.92 407.107 224.92 408.707 226.36 411.987C227.641 408.827 230.761 407.107 234.12 407.107C239.12 407.107 243 410.227 243 416.507V429.427H239.399V417.027Z" fill="#493728"/>
<path d="M259.641 401.747H263.56L273.8 424.627L284.04 401.747H287.92V429.427H284.279V408.787L275.081 429.427H272.521L263.281 408.747V429.427H259.641V401.747Z" fill="#493728"/>
<path d="M294.081 407.507H297.721V429.427H294.081V407.507ZM293.483 401.467C293.483 400.067 294.56 398.987 295.961 398.987C297.281 398.987 298.36 400.067 298.36 401.467C298.36 402.867 297.281 403.947 295.961 403.947C294.56 403.947 293.483 402.867 293.483 401.467Z" fill="#493728"/>
<path d="M303.92 399.827H307.56V429.427H303.92V399.827Z" fill="#493728"/>
<path d="M313.761 399.827H317.403V417.227L325.839 407.507H330.913L320.599 418.427L330.953 429.427H326L317.403 419.747V429.427H313.761V399.827Z" fill="#493728"/>
<path d="M101.097 429.427H77.1279V405.453H101.097V429.427Z" fill="#F5CFB2"/>
<path d="M80.4613 426.093H97.764V408.787H80.4613V426.093ZM101.097 432.76H77.128C75.2867 432.76 73.7947 431.267 73.7947 429.427V405.453C73.7947 403.613 75.2867 402.12 77.128 402.12H101.097C102.937 402.12 104.431 403.613 104.431 405.453V429.427C104.431 431.267 102.937 432.76 101.097 432.76Z" fill="#493728"/>
</svg>
