<svg width="792" height="441" viewBox="0 0 792 441" fill="none" xmlns="http://www.w3.org/2000/svg">
<path d="M213.664 90.4533C213.664 105.84 201.199 118.307 185.823 118.307C170.448 118.307 157.983 105.84 157.983 90.4533C157.983 75.0933 170.448 62.6133 185.823 62.6133C201.199 62.6133 213.664 75.0933 213.664 90.4533Z" fill="white"/>
<path d="M174.483 96.0799C174.483 108.947 164.055 119.373 151.197 119.373C138.332 119.373 127.904 108.947 127.904 96.0799C127.904 83.2266 138.332 72.8 151.197 72.8C164.055 72.8 174.483 83.2266 174.483 96.0799Z" fill="white"/>
<path d="M441.828 99.3866C441.828 109.693 433.468 118.053 423.161 118.053C412.841 118.053 404.481 109.693 404.481 99.3866C404.481 89.0666 412.841 80.7066 423.161 80.7066C433.468 80.7066 441.828 89.0666 441.828 99.3866Z" fill="white"/>
<path d="M268.055 85.1066C268.055 105.24 251.723 121.573 231.587 121.573C211.44 121.573 195.112 105.24 195.112 85.1066C195.112 64.9599 211.44 48.6266 231.587 48.6266C251.723 48.6266 268.055 64.9599 268.055 85.1066Z" fill="white"/>
<path d="M598.068 94.0534C598.068 114.2 581.735 130.52 561.588 130.52C541.455 130.52 525.122 114.2 525.122 94.0534C525.122 73.9067 541.455 57.5867 561.588 57.5867C581.735 57.5867 598.068 73.9067 598.068 94.0534Z" fill="white"/>
<path d="M300.896 96.08C300.896 110.587 289.143 122.347 274.645 122.347C260.143 122.347 248.388 110.587 248.388 96.08C248.388 81.5867 260.143 69.8267 274.645 69.8267C289.143 69.8267 300.896 81.5867 300.896 96.08Z" fill="white"/>
<path d="M377.231 96.0799C377.231 107.4 368.056 116.573 356.745 116.573C345.427 116.573 336.256 107.4 336.256 96.0799C336.256 84.7732 345.427 75.5999 356.745 75.5999C368.056 75.5999 377.231 84.7732 377.231 96.0799Z" fill="white"/>
<path d="M414.508 86.7598C414.508 100.573 403.308 111.773 389.504 111.773C375.692 111.773 364.495 100.573 364.495 86.7598C364.495 72.9598 375.692 61.7598 389.504 61.7598C403.308 61.7598 414.508 72.9598 414.508 86.7598Z" fill="white"/>
<path d="M530.535 100.267C530.535 114.067 519.321 125.267 505.521 125.267C491.708 125.267 480.508 114.067 480.508 100.267C480.508 86.4533 491.708 75.2533 505.521 75.2533C519.321 75.2533 530.535 86.4533 530.535 100.267Z" fill="white"/>
<path d="M625.162 97.3732C625.162 107.853 616.655 116.36 606.175 116.36C595.681 116.36 587.175 107.853 587.175 97.3732C587.175 86.8799 595.681 78.3732 606.175 78.3732C616.655 78.3732 625.162 86.8799 625.162 97.3732Z" fill="white"/>
<path d="M344.032 86.7199C344.032 104.747 329.405 119.373 311.367 119.373C293.329 119.373 278.707 104.747 278.707 86.7199C278.707 68.6799 293.329 54.0533 311.367 54.0533C329.405 54.0533 344.032 68.6799 344.032 86.7199Z" fill="white"/>
<path d="M486.615 96.0933C486.615 114.12 471.988 128.747 453.948 128.747C435.908 128.747 421.295 114.12 421.295 96.0933C421.295 78.0399 435.908 63.4266 453.948 63.4266C471.988 63.4266 486.615 78.0399 486.615 96.0933Z" fill="white"/>
<path d="M129.291 111.267C139.235 201.173 184.791 340.827 371.948 340.827C542.961 340.827 601.855 201.173 622.055 111.267H129.291Z" fill="#F5CFB2"/>
<path d="M166.531 233.04C200.011 291.667 261.136 340.68 371.955 340.68C473.215 340.68 535.121 291.667 572.975 233.04H166.531Z" fill="#493728"/>
<path d="M135.919 96.16C135.925 96.28 135.931 96.4 135.935 96.5067C135.948 97.04 135.991 97.5733 136.06 98.12C136.077 98.24 136.092 98.3734 136.103 98.5067C143.196 186.013 183.268 332.827 371.948 332.827C541.575 332.827 597.321 189.493 615.455 103.973C615.961 101.24 616.801 97.1067 617.148 95.4267C617.148 92.8667 616.455 90.9067 615.041 89.44C613.161 87.4934 609.921 86.3734 606.175 86.3734C604.041 86.3734 601.975 86.9867 600.188 88.1467C598.148 89.48 595.615 89.8 593.308 89.04C591.001 88.28 589.161 86.4933 588.321 84.2133C584.215 73.0667 573.481 65.5867 561.588 65.5867C548.415 65.5867 536.735 74.9067 533.841 87.7467C533.135 90.84 530.681 93.2267 527.575 93.8267C524.455 94.44 521.281 93.16 519.468 90.56C516.281 85.9867 511.068 83.2533 505.521 83.2533C499.975 83.2533 494.761 85.9867 491.575 90.56C489.828 93.04 486.828 94.3333 483.828 93.8933C480.828 93.44 478.335 91.3333 477.401 88.4533C474.095 78.2667 464.668 71.4267 453.948 71.4267C444.801 71.4267 436.441 76.4533 432.148 84.5467C430.628 87.4267 427.521 89.1067 424.268 88.76C422.068 88.5333 419.948 88.96 418.041 90.0133C415.748 91.2667 412.988 91.32 410.655 90.16C408.308 89.0133 406.681 86.7733 406.295 84.2C405.041 75.96 397.828 69.76 389.504 69.76C382.501 69.76 376.119 74.1733 373.621 80.7333C372.811 82.8667 371.128 84.56 368.997 85.3734C366.865 86.1734 364.488 86.04 362.463 85C360.668 84.0667 358.745 83.6 356.745 83.6C352.947 83.6 350.24 85.2267 348.64 86.6C346.473 88.4533 343.48 89.0133 340.793 88.08C338.103 87.1333 336.116 84.8267 335.579 82.04C333.357 70.4534 323.173 62.0533 311.367 62.0533C302.333 62.0533 294.032 66.9867 289.7 74.9333C287.863 78.2933 283.888 79.8934 280.228 78.7067C276.344 77.4667 272.173 77.5467 268.241 79.0133C264.169 80.5467 259.627 78.5467 258.007 74.5067C253.648 63.6534 243.277 56.6267 231.587 56.6267C221.551 56.6267 212.144 62.0133 207.037 70.68C205.953 72.52 204.179 73.8534 202.111 74.3734C200.047 74.8934 197.849 74.5733 196.019 73.4667C192.92 71.6 189.392 70.6133 185.823 70.6133C179 70.6133 172.735 74.08 169.061 79.8933C166.812 83.4533 162.181 84.6534 158.477 82.64C156.229 81.4134 153.78 80.8 151.197 80.8C142.836 80.8 136.021 87.5333 135.905 95.8667C135.907 95.8933 135.908 95.9067 135.909 95.92C135.913 96 135.917 96.08 135.919 96.16ZM371.948 348.827C283.312 348.827 216.319 318.253 172.827 257.987C135.773 206.627 123.736 143.747 120.169 99.9734C120.055 99.04 119.979 98.1067 119.947 97.1734L119.928 96.9333C119.909 96.6933 119.901 96.44 119.905 96.2C119.904 96.16 119.904 96.12 119.904 96.08C119.904 78.8267 133.943 64.8 151.197 64.8C154.069 64.8 156.928 65.2 159.679 65.9734C166.389 58.7734 175.768 54.6133 185.823 54.6133C189.797 54.6133 193.735 55.2933 197.477 56.5867C205.855 46.6 218.369 40.6267 231.587 40.6267C247.453 40.6267 261.764 48.9067 269.711 62.2C272.783 61.7467 275.919 61.72 278.991 62.1067C286.613 52.08 298.543 46.0533 311.367 46.0533C327.225 46.0533 341.308 55.2533 347.967 68.9867C352.525 67.5067 357.516 67.1867 362.287 68.1467C368.359 59.32 378.539 53.76 389.504 53.76C402.521 53.76 414.148 61.5733 419.441 72.96C419.828 72.92 420.215 72.8667 420.601 72.8267C428.148 61.9867 440.521 55.4267 453.948 55.4267C467.508 55.4267 479.828 62.08 487.281 72.76C492.615 69.2267 498.948 67.2533 505.521 67.2533C511.708 67.2533 517.695 69 522.841 72.1734C530.521 58.44 545.095 49.5867 561.588 49.5867C577.321 49.5867 591.775 57.9867 599.721 71.16C601.815 70.64 603.975 70.3734 606.175 70.3734C614.361 70.3734 621.601 73.2 626.561 78.3333C631.121 83.0667 633.388 89.3867 633.135 96.6133C633.108 97.0667 633.055 97.52 632.961 97.96C632.948 98.0133 631.761 103.733 631.188 106.933C631.161 107.013 631.148 107.093 631.135 107.173C612.028 197.427 552.935 348.827 371.948 348.827Z" fill="#493728"/>
<path d="M621.935 119.773H131.252C126.834 119.773 123.252 116.187 123.252 111.773C123.252 107.36 126.834 103.773 131.252 103.773H621.935C626.362 103.773 629.935 107.36 629.935 111.773C629.935 116.187 626.362 119.773 621.935 119.773Z" fill="#493728"/>
<path d="M611.081 248.16C607.255 253.867 603.295 259.427 599.188 264.813C626.575 258.213 653.375 249.48 679.135 238.747C733.841 215.96 771.601 176.387 775.348 137.92C777.535 115.347 767.415 95.88 746.068 81.6267C733.268 73.08 718.908 68.76 703.375 68.76C695.135 68.76 686.535 69.9733 677.761 72.36C676.495 79.5333 675.081 86.6933 673.535 93.7733C693.388 87.64 710.455 87.8667 723.615 94.5067C740.308 102.92 750.615 118.653 751.188 136.613C752.015 162.747 733.201 189.04 699.561 208.76C673.308 224.133 643.561 237.373 611.081 248.16ZM578.335 285.547C575.495 285.547 572.828 284.04 571.388 281.507C569.681 278.52 570.081 274.787 572.361 272.227C581.921 261.493 590.975 249.653 599.255 237.04C600.255 235.52 601.735 234.373 603.468 233.813C635.881 223.24 665.495 210.16 691.468 194.947C719.895 178.293 735.828 157.227 735.188 137.12C734.801 124.933 727.961 114.613 716.415 108.8C711.855 106.493 706.375 105.333 700.161 105.333C690.281 105.333 678.641 108.173 665.561 113.773C662.775 114.973 659.548 114.493 657.241 112.533C654.921 110.573 653.921 107.467 654.641 104.52C657.828 91.52 660.588 78.1467 662.841 64.7733C663.335 61.8133 665.455 59.3866 668.308 58.48C680.241 54.68 692.041 52.76 703.375 52.76C722.121 52.76 739.468 57.9867 754.948 68.32C781.135 85.8 794.028 111.067 791.268 139.467C786.961 183.72 745.361 228.493 685.295 253.52C651.561 267.573 616.081 278.293 579.868 285.4C579.361 285.493 578.841 285.547 578.335 285.547Z" fill="#493728"/>
<path d="M90.8333 16.7331C89.96 30.9731 88.8613 65.0398 94.3813 106.066C101.039 155.533 118.979 225.613 166.633 278.493C214.22 331.306 282.841 358.08 370.593 358.08C490.188 358.08 576.735 299.573 627.828 184.16C659.468 112.72 667.015 40.5998 668.708 16.7331H90.8333ZM370.593 374.08C278.079 374.08 205.437 345.506 154.685 289.146C104.232 233.106 85.388 159.573 78.4626 107.746C70.9973 51.8665 75.2787 9.66649 75.464 7.89316C75.8907 3.82649 79.3253 0.733135 83.42 0.733135H677.175C679.335 0.733135 681.401 1.59981 682.908 3.14648C684.415 4.70648 685.228 6.78648 685.161 8.94648C685.068 12.6665 682.201 100.893 642.455 190.64C618.961 243.72 587.375 286.08 548.615 316.533C500.001 354.72 440.108 374.08 370.593 374.08Z" fill="#493728"/>
<path d="M682.815 374.08H76.4521C72.0348 374.08 68.4521 370.493 68.4521 366.08C68.4521 361.667 72.0348 358.08 76.4521 358.08H682.815C687.228 358.08 690.815 361.667 690.815 366.08C690.815 370.493 687.228 374.08 682.815 374.08Z" fill="#493728"/>
<path d="M181.197 138.44C181.197 142.48 177.909 145.773 173.864 145.773C169.811 145.773 166.531 142.48 166.531 138.44C166.531 134.387 169.811 131.107 173.864 131.107C177.909 131.107 181.197 134.387 181.197 138.44Z" fill="white"/>
<path d="M238.079 186.187C238.079 190.24 234.795 193.52 230.745 193.52C226.699 193.52 223.412 190.24 223.412 186.187C223.412 182.133 226.699 178.853 230.745 178.853C234.795 178.853 238.079 182.133 238.079 186.187Z" fill="white"/>
<path d="M407.415 220.827C407.415 224.88 404.135 228.16 400.081 228.16C396.028 228.16 392.753 224.88 392.753 220.827C392.753 216.787 396.028 213.493 400.081 213.493C404.135 213.493 407.415 216.787 407.415 220.827Z" fill="white"/>
<path d="M201.412 215.133C201.412 219.187 198.128 222.467 194.079 222.467C190.032 222.467 186.745 219.187 186.745 215.133C186.745 211.08 190.032 207.8 194.079 207.8C198.128 207.8 201.412 211.08 201.412 215.133Z" fill="white"/>
<path d="M271.42 145.773C271.42 149.813 268.132 153.106 264.087 153.106C260.033 153.106 256.753 149.813 256.753 145.773C256.753 141.72 260.033 138.44 264.087 138.44C268.132 138.44 271.42 141.72 271.42 145.773Z" fill="white"/>
<path d="M379.631 156.36C379.631 160.413 376.347 163.693 372.297 163.693C368.252 163.693 364.964 160.413 364.964 156.36C364.964 152.307 368.252 149.027 372.297 149.027C376.347 149.027 379.631 152.307 379.631 156.36Z" fill="white"/>
<path d="M436.321 138.44C436.321 142.48 433.028 145.773 428.988 145.773C424.935 145.773 421.655 142.48 421.655 138.44C421.655 134.387 424.935 131.107 428.988 131.107C433.028 131.107 436.321 134.387 436.321 138.44Z" fill="white"/>
<path d="M534.321 168.466C534.321 172.52 531.028 175.8 526.988 175.8C522.935 175.8 519.655 172.52 519.655 168.466C519.655 164.413 522.935 161.133 526.988 161.133C531.028 161.133 534.321 164.413 534.321 168.466Z" fill="white"/>
<path d="M506.081 206.853C506.081 210.907 502.801 214.187 498.748 214.187C494.695 214.187 491.415 210.907 491.415 206.853C491.415 202.8 494.695 199.52 498.748 199.52C502.801 199.52 506.081 202.8 506.081 206.853Z" fill="white"/>
<path d="M211.783 153.027C211.783 154.867 210.291 156.36 208.45 156.36C206.61 156.36 205.116 154.867 205.116 153.027C205.116 151.187 206.61 149.693 208.45 149.693C210.291 149.693 211.783 151.187 211.783 153.027Z" fill="white"/>
<path d="M301.635 168.466C301.635 170.306 300.143 171.8 298.301 171.8C296.46 171.8 294.968 170.306 294.968 168.466C294.968 166.626 296.46 165.133 298.301 165.133C300.143 165.133 301.635 166.626 301.635 168.466Z" fill="white"/>
<path d="M285.412 203.52C285.412 205.36 283.92 206.853 282.079 206.853C280.237 206.853 278.745 205.36 278.745 203.52C278.745 201.68 280.237 200.187 282.079 200.187C283.92 200.187 285.412 201.68 285.412 203.52Z" fill="white"/>
<path d="M477.415 153.107C477.415 154.947 475.921 156.44 474.081 156.44C472.241 156.44 470.748 154.947 470.748 153.107C470.748 151.267 472.241 149.773 474.081 149.773C475.921 149.773 477.415 151.267 477.415 153.107Z" fill="white"/>
<path d="M414.081 184.88C414.081 186.72 412.588 188.213 410.748 188.213C408.908 188.213 407.415 186.72 407.415 184.88C407.415 183.04 408.908 181.546 410.748 181.546C412.588 181.546 414.081 183.04 414.081 184.88Z" fill="white"/>
<path d="M459.415 193.52C459.415 195.36 457.921 196.853 456.081 196.853C454.241 196.853 452.748 195.36 452.748 193.52C452.748 191.68 454.241 190.187 456.081 190.187C457.921 190.187 459.415 191.68 459.415 193.52Z" fill="white"/>
<path d="M576.308 145.773C576.308 147.613 574.815 149.106 572.975 149.106C571.135 149.106 569.641 147.613 569.641 145.773C569.641 143.933 571.135 142.44 572.975 142.44C574.815 142.44 576.308 143.933 576.308 145.773Z" fill="white"/>
<path d="M519.655 133.52C519.655 135.36 518.161 136.853 516.321 136.853C514.481 136.853 512.988 135.36 512.988 133.52C512.988 131.68 514.481 130.187 516.321 130.187C518.161 130.187 519.655 131.68 519.655 133.52Z" fill="white"/>
<path d="M564.081 200.187C564.081 202.027 562.588 203.52 560.748 203.52C558.908 203.52 557.415 202.027 557.415 200.187C557.415 198.347 558.908 196.853 560.748 196.853C562.588 196.853 564.081 198.347 564.081 200.187Z" fill="white"/>
<path d="M326.643 133.52C326.643 135.36 325.151 136.853 323.309 136.853C321.468 136.853 319.976 135.36 319.976 133.52C319.976 131.68 321.468 130.187 323.309 130.187C325.151 130.187 326.643 131.68 326.643 133.52Z" fill="white"/>
<path d="M342.079 196.853C342.079 198.693 340.587 200.187 338.745 200.187C336.904 200.187 335.412 198.693 335.412 196.853C335.412 195.013 336.904 193.52 338.745 193.52C340.587 193.52 342.079 195.013 342.079 196.853Z" fill="white"/>
<path d="M44.0867 402.173H59.8453V405.133H47.7253V414.533H57.5667V417.493H47.7253V430.053H44.0867V402.173Z" fill="#493728"/>
<path d="M73.8082 427.213C77.6068 427.213 81.3255 424.613 81.3255 419.053C81.3255 413.533 77.6869 410.933 73.9269 410.933C70.0869 410.933 66.6068 413.533 66.6068 419.053C66.6068 424.613 70.0068 427.213 73.8082 427.213ZM73.8082 430.413C67.6068 430.413 62.8882 426.013 62.8882 419.053C62.8882 412.133 67.7681 407.773 73.9655 407.773C80.2055 407.773 85.0468 412.133 85.0468 419.053C85.0468 426.013 80.0468 430.413 73.8082 430.413Z" fill="#493728"/>
<path d="M99.6068 410.933C95.6068 410.933 92.2082 413.853 92.2082 419.013C92.2082 424.173 95.6068 427.213 99.6068 427.213C103.607 427.213 107.047 424.213 107.047 419.053C107.047 413.973 103.607 410.933 99.6068 410.933ZM98.8882 407.773C102.966 407.773 105.766 409.853 107.047 412.133V408.133H110.725V430.053H107.047V425.973C105.726 428.333 102.888 430.413 98.8455 430.413C93.0068 430.413 88.4868 425.813 88.4868 419.013C88.4868 412.173 93.0069 407.773 98.8882 407.773Z" fill="#493728"/>
<path d="M148.525 417.653C148.525 413.173 146.127 410.893 142.525 410.893C138.845 410.893 136.328 413.253 136.328 417.973V430.053H132.725V417.653C132.725 413.173 130.328 410.893 126.725 410.893C123.047 410.893 120.529 413.253 120.529 417.973V430.053H116.888V408.133H120.529V411.293C121.968 408.973 124.567 407.733 127.447 407.733C131.047 407.733 134.047 409.333 135.487 412.613C136.768 409.453 139.888 407.733 143.247 407.733C148.247 407.733 152.127 410.853 152.127 417.133V430.053H148.525V417.653Z" fill="#493728"/>
<path d="M168.768 402.373H172.687L182.927 425.253L193.167 402.373H197.047V430.053H193.405V409.413L184.208 430.053H181.648L172.408 409.373V430.053H168.768V402.373Z" fill="#493728"/>
<path d="M203.208 408.133H206.848V430.053H203.208V408.133ZM202.609 402.093C202.609 400.693 203.687 399.613 205.088 399.613C206.408 399.613 207.487 400.693 207.487 402.093C207.487 403.493 206.408 404.573 205.088 404.573C203.687 404.573 202.609 403.493 202.609 402.093Z" fill="#493728"/>
<path d="M213.047 400.453H216.687V430.053H213.047V400.453Z" fill="#493728"/>
<path d="M222.888 400.453H226.529V417.853L234.966 408.133H240.047L229.726 419.053L240.087 430.053H235.127L226.529 420.373V430.053H222.888V400.453Z" fill="#493728"/>
<path d="M27.3015 430.053H3.3335V406.08H27.3015V430.053Z" fill="white"/>
<path d="M6.66667 426.72H23.968V409.413H6.66667V426.72ZM27.3013 433.386H3.33333C1.492 433.386 0 431.893 0 430.053V406.08C0 404.24 1.492 402.746 3.33333 402.746H27.3013C29.1426 402.746 30.6346 404.24 30.6346 406.08V430.053C30.6346 431.893 29.1426 433.386 27.3013 433.386Z" fill="#493728"/>
<path d="M593.575 405.133H582.215V414.453H592.375V417.453H582.215V427.053H593.575V430.053H578.575V402.133H593.575V405.133Z" fill="#493728"/>
<path d="M606.855 430.413C601.735 430.413 598.135 427.613 597.895 423.613H601.655C601.855 425.733 603.735 427.333 606.815 427.333C609.695 427.333 611.295 425.893 611.295 424.093C611.295 419.213 598.335 422.053 598.335 413.893C598.335 410.533 601.494 407.773 606.374 407.773C611.214 407.773 614.415 410.373 614.655 414.653H611.015C610.855 412.453 609.175 410.853 606.255 410.853C603.575 410.853 601.974 412.133 601.974 413.893C601.974 419.093 614.695 416.253 614.855 424.093C614.855 427.693 611.695 430.413 606.855 430.413Z" fill="#493728"/>
<path d="M631.055 410.933C627.095 410.933 623.615 413.973 623.615 419.053C623.615 424.213 627.095 427.213 631.055 427.213C635.095 427.213 638.495 424.173 638.495 419.013C638.495 413.853 635.095 410.933 631.055 410.933ZM631.815 407.773C637.695 407.773 642.215 412.173 642.215 419.013C642.215 425.813 637.695 430.413 631.815 430.413C627.815 430.413 624.975 428.253 623.615 426.013V440.453H619.975V408.133H623.615V412.173C624.935 409.853 627.815 407.773 631.815 407.773Z" fill="#493728"/>
<path d="M650.655 430.053H647.015V408.133H650.655V411.693C651.895 409.253 654.255 407.733 657.735 407.733V411.493H656.775C653.295 411.493 650.655 413.053 650.655 418.133V430.053Z" fill="#493728"/>
<path d="M664.335 417.493H678.175C678.215 413.213 675.015 410.853 671.255 410.853C667.695 410.853 664.735 413.213 664.335 417.493ZM671.415 430.413C665.175 430.413 660.575 426.013 660.575 419.053C660.575 412.133 665.015 407.773 671.415 407.773C677.775 407.773 681.935 412.253 681.935 418.253C681.935 419.053 681.895 419.693 681.815 420.453H664.295C664.575 424.893 667.695 427.333 671.415 427.333C674.695 427.333 676.775 425.653 677.575 423.293H681.495C680.375 427.293 676.855 430.413 671.415 430.413Z" fill="#493728"/>
<path d="M694.495 430.413C689.375 430.413 685.775 427.613 685.535 423.613H689.295C689.495 425.733 691.375 427.333 694.455 427.333C697.335 427.333 698.935 425.893 698.935 424.093C698.935 419.213 685.975 422.053 685.975 413.893C685.975 410.533 689.135 407.773 694.015 407.773C698.855 407.773 702.055 410.373 702.295 414.653H698.655C698.495 412.453 696.815 410.853 693.895 410.853C691.215 410.853 689.615 412.133 689.615 413.893C689.615 419.093 702.335 416.253 702.495 424.093C702.495 427.693 699.335 430.413 694.495 430.413Z" fill="#493728"/>
<path d="M715.374 430.413C710.254 430.413 706.641 427.613 706.415 423.613H710.174C710.374 425.733 712.255 427.333 715.321 427.333C718.201 427.333 719.815 425.893 719.815 424.093C719.815 419.213 706.855 422.053 706.855 413.893C706.855 410.533 710.001 407.773 714.881 407.773C719.735 407.773 722.934 410.373 723.174 414.653H719.534C719.374 412.453 717.681 410.853 714.761 410.853C712.081 410.853 710.494 412.133 710.494 413.893C710.494 419.093 723.201 416.253 723.374 424.093C723.374 427.693 720.201 430.413 715.374 430.413Z" fill="#493728"/>
<path d="M738.042 427.213C741.842 427.213 745.562 424.613 745.562 419.053C745.562 413.533 741.922 410.933 738.162 410.933C734.322 410.933 730.855 413.533 730.855 419.053C730.855 424.613 734.242 427.213 738.042 427.213ZM738.042 430.413C731.855 430.413 727.122 426.013 727.122 419.053C727.122 412.133 732.002 407.773 738.202 407.773C744.442 407.773 749.282 412.133 749.282 419.053C749.282 426.013 744.282 430.413 738.042 430.413Z" fill="#493728"/>
<path d="M561.788 430.053H537.815V406.08H561.788V430.053Z" fill="#493728"/>
<path d="M541.148 426.72H558.455V409.413H541.148V426.72ZM561.788 433.386H537.815C535.975 433.386 534.481 431.893 534.481 430.053V406.08C534.481 404.24 535.975 402.746 537.815 402.746H561.788C563.628 402.746 565.121 404.24 565.121 406.08V430.053C565.121 431.893 563.628 433.386 561.788 433.386Z" fill="#493728"/>
<path d="M311.768 430.333C306.168 430.333 302.208 427.213 302.129 422.613H306.009C306.251 424.933 307.888 427.253 311.768 427.253C315.288 427.253 317.369 425.253 317.369 422.613C317.369 415.093 302.288 419.893 302.288 409.533C302.288 404.933 306.009 401.813 311.529 401.813C316.848 401.813 320.328 404.733 320.768 408.973H316.768C316.529 407.093 314.768 404.973 311.369 404.933C308.369 404.853 306.009 406.413 306.009 409.413C306.009 416.613 321.049 412.133 321.049 422.453C321.049 426.413 317.809 430.333 311.768 430.333Z" fill="#493728"/>
<path d="M327.208 411.133H324.369V408.133H327.208V402.613H330.848V408.133H336.567V411.133H330.848V424.053C330.848 426.213 331.648 426.973 333.888 426.973H336.567V430.053H333.288C329.408 430.053 327.208 428.453 327.208 424.053V411.133Z" fill="#493728"/>
<path d="M343.367 417.493H357.208C357.247 413.213 354.047 410.853 350.288 410.853C346.728 410.853 343.768 413.213 343.367 417.493ZM350.447 430.413C344.208 430.413 339.609 426.013 339.609 419.053C339.609 412.133 344.049 407.773 350.447 407.773C356.808 407.773 360.968 412.253 360.968 418.253C360.968 419.053 360.927 419.693 360.848 420.453H343.328C343.609 424.893 346.728 427.333 350.447 427.333C353.728 427.333 355.808 425.653 356.607 423.293H360.529C359.408 427.293 355.888 430.413 350.447 430.413Z" fill="#493728"/>
<path d="M375.529 410.933C371.529 410.933 368.127 413.853 368.127 419.013C368.127 424.173 371.529 427.213 375.529 427.213C379.529 427.213 382.965 424.213 382.965 419.053C382.965 413.973 379.529 410.933 375.529 410.933ZM374.808 407.773C378.888 407.773 381.687 409.853 382.965 412.133V408.133H386.648V430.053H382.965V425.973C381.648 428.333 378.808 430.413 374.768 430.413C368.927 430.413 364.408 425.813 364.408 419.013C364.408 412.173 368.927 407.773 374.808 407.773Z" fill="#493728"/>
<path d="M424.441 417.653C424.441 413.173 422.041 410.893 418.441 410.893C414.761 410.893 412.241 413.253 412.241 417.973V430.053H408.641V417.653C408.641 413.173 406.241 410.893 402.641 410.893C398.975 410.893 396.441 413.253 396.441 417.973V430.053H392.808V408.133H396.441V411.293C397.881 408.973 400.481 407.733 403.361 407.733C406.975 407.733 409.975 409.333 411.415 412.613C412.682 409.453 415.801 407.733 419.161 407.733C424.161 407.733 428.041 410.853 428.041 417.133V430.053H424.441V417.653Z" fill="#493728"/>
<path d="M444.681 402.373H448.614L458.854 425.253L469.081 402.373H472.974V430.053H469.321V409.413L460.121 430.053H457.561L448.321 409.373V430.053H444.681V402.373Z" fill="#493728"/>
<path d="M479.121 408.133H482.761V430.053H479.121V408.133ZM478.535 402.093C478.535 400.693 479.615 399.613 481.001 399.613C482.321 399.613 483.415 400.693 483.415 402.093C483.415 403.493 482.321 404.573 481.001 404.573C479.615 404.573 478.535 403.493 478.535 402.093Z" fill="#493728"/>
<path d="M488.975 400.453H492.615V430.053H488.975V400.453Z" fill="#493728"/>
<path d="M498.801 400.453H502.441V417.853L510.881 408.133H515.975L505.641 419.053L516.001 430.053H511.041L502.441 420.373V430.053H498.801V400.453Z" fill="#493728"/>
<path d="M286.144 430.053H262.175V406.08H286.144V430.053Z" fill="#F5CFB2"/>
<path d="M265.508 426.72H282.811V409.413H265.508V426.72ZM286.144 433.386H262.175C260.333 433.386 258.841 431.893 258.841 430.053V406.08C258.841 404.24 260.333 402.746 262.175 402.746H286.144C287.985 402.746 289.477 404.24 289.477 406.08V430.053C289.477 431.893 287.985 433.386 286.144 433.386Z" fill="#493728"/>
</svg>
