<svg width="409" height="339" viewBox="0 0 409 339" fill="none" xmlns="http://www.w3.org/2000/svg">
<path d="M349.562 336.591C345.855 341.256 338.338 338.7 338.249 332.744L336.943 245.625H395.568C406.186 245.625 412.109 257.879 405.506 266.189L349.562 336.591Z" fill="url(#paint0_linear_2_15)"/>
<path d="M349.562 336.591C345.855 341.256 338.338 338.7 338.249 332.744L336.943 245.625H395.568C406.186 245.625 412.109 257.879 405.506 266.189L349.562 336.591Z" fill="url(#paint1_linear_2_15)" fill-opacity="0.2"/>
<path d="M325.719 196.409C329.427 191.744 336.943 194.3 337.033 200.257L337.605 287.375H279.714C269.095 287.375 263.172 275.121 269.775 266.811L325.719 196.409Z" fill="#3ECF8E"/>
<path d="M103.987 124H172.693C174.886 124 176.984 123.228 178.883 122.14C180.782 121.052 182.739 119.685 183.835 117.8C184.93 115.915 185.692 113.776 185.692 111.599C185.691 109.423 184.932 107.285 183.835 105.4L137.412 25.4201C136.316 23.5351 134.977 22.1682 133.079 21.0798C131.181 19.9919 128.462 19.2198 126.27 19.2198C124.078 19.2198 121.979 19.9919 120.081 21.0798C118.182 22.1682 116.843 23.5351 115.748 25.4201L103.987 45.8801L80.4662 6.19853C79.3696 4.31397 78.0325 2.32807 76.1335 1.24015C74.2346 0.151784 72.1364 0 69.944 0C67.7516 0 65.6529 0.151784 63.754 1.24015C61.8554 2.32807 59.8991 4.31397 58.8025 6.19853L1.23796 105.4C0.140499 107.285 0.000968296 109.423 4.80233e-06 111.599C-0.000958692 113.776 0.142163 115.914 1.23796 117.8C2.33376 119.685 4.29101 121.052 6.18971 122.14C8.08845 123.228 10.1869 124 12.3795 124H55.7075C72.8756 124 85.3717 116.286 94.0839 101.68L115.129 65.0999L126.27 45.8801L160.314 104.16H115.129L103.987 124ZM55.0886 104.16H24.7587L69.944 26.04L92.8458 65.0999L77.6756 91.5891C71.8902 101.066 65.2938 104.16 55.0886 104.16Z" fill="#00DC82"/>
<rect x="206" y="93" width="46" height="156" fill="url(#paint2_linear_2_15)"/>
<rect x="151" y="194" width="46" height="156" transform="rotate(-90 151 194)" fill="url(#paint3_linear_2_15)"/>
<defs>
<linearGradient id="paint0_linear_2_15" x1="336.943" y1="264.941" x2="389.034" y2="286.806" gradientUnits="userSpaceOnUse">
<stop stop-color="#249361"/>
<stop offset="1" stop-color="#3ECF8E"/>
</linearGradient>
<linearGradient id="paint1_linear_2_15" x1="313.842" y1="233.338" x2="337.575" y2="278.049" gradientUnits="userSpaceOnUse">
<stop/>
<stop offset="1" stop-opacity="0"/>
</linearGradient>
<linearGradient id="paint2_linear_2_15" x1="229" y1="93" x2="229" y2="249" gradientUnits="userSpaceOnUse">
<stop stop-color="#00DC82"/>
<stop offset="0.78125" stop-color="#0E8353" stop-opacity="0.53125"/>
<stop offset="0.822917" stop-color="#10794E" stop-opacity="0.480655"/>
<stop offset="1" stop-color="#1E1E1E" stop-opacity="0"/>
</linearGradient>
<linearGradient id="paint3_linear_2_15" x1="174" y1="194" x2="174" y2="350" gradientUnits="userSpaceOnUse">
<stop stop-color="#00DC82"/>
<stop offset="0.78125" stop-color="#0E8353" stop-opacity="0.53125"/>
<stop offset="0.822917" stop-color="#10794E" stop-opacity="0.480655"/>
<stop offset="1" stop-color="#1E1E1E" stop-opacity="0"/>
</linearGradient>
</defs>
</svg>
